<?xml version="1.0" standalone="no"?>
<!DOCTYPE svg PUBLIC "-//W3C//DTD SVG 1.1//EN" "http://www.w3.org/Graphics/SVG/1.1/DTD/svg11.dtd" >
<!--
2013-9-30: Created.
-->
<svg>
<metadata>
Created by iconfont
</metadata>
<defs>

<font id="iconfont" horiz-adv-x="1024" >
  <font-face
    font-family="iconfont"
    font-weight="500"
    font-stretch="normal"
    units-per-em="1024"
    ascent="896"
    descent="-128"
  />
    <missing-glyph />
    
    <glyph glyph-name="msnui-alarm-inverse" unicode="&#58937;" d="M608.488 734.233q2.723-4.541 18.615-31.329t39.956-67.653 54.031-92.625 61.751-105.792 63.112-107.155 57.209-97.619 44.497-76.279 25.88-43.588q13.622-22.702 16.8-45.404t-2.723-40.865-20.887-29.513-36.778-10.443q-10.898 0-46.312 0.455t-85.361 0.455h-241.551q-65.382 0-129.856-0.455t-119.867-0.455h-158.915q-34.508 0-53.123 11.806t-24.973 30.421-1.363 40.41 17.708 40.865q6.356 9.988 24.973 40.865t44.95 74.918 58.118 97.166 64.474 108.062 63.566 106.7 55.394 93.533 40.865 69.015l19.070 31.783q12.713 19.978 33.145 30.421t42.225 10.443 42.225-9.535 33.145-28.606zM585.785 556.248q0 10.898-4.995 20.432t-13.167 17.254-18.615 12.259-21.339 4.541q-20.887 0-38.594-16.345t-17.708-37.231v-237.918q0-20.887 17.708-37.686t38.594-16.8q21.794 0 39.956 15.892t18.162 36.778v238.828zM527.666 211.174q-23.61 0-40.41-16.345t-16.8-39.956 16.8-40.41 40.41-16.8 39.956 16.8 16.345 40.41-16.345 39.956-39.956 16.345z"  horiz-adv-x="1052" />

    
    <glyph glyph-name="msnui-safe" unicode="&#59042;" d="M922.999 756.118v-456.65c0-27.386-6.853-54.626-20.534-81.72-13.694-27.119-31.619-53.384-53.799-78.844-22.167-25.46-47.505-49.555-75.977-72.283-28.473-22.73-57.347-42.995-86.647-60.773-29.302-17.802-57.762-32.606-85.417-44.361-27.655-11.778-51.883-19.85-72.686-24.24l-9.852-1.634-9.035 1.634c-21.364 4.39-46.14 12.462-74.332 24.24-28.204 11.754-57.504 26.559-87.878 44.361-30.399 17.778-60.237 38.043-89.526 60.773-29.313 22.728-55.443 46.823-78.441 72.283s-41.616 51.725-55.847 78.844c-14.242 27.094-21.375 54.334-21.375 81.72l0 456.65 33.678 4.949 377.817 70.626 385.206-70.626 24.644-4.949zM513.245 765.579l-4.523 0.903-324.275-55.114v-288.135h328.798v342.346zM840.217 423.233h-326.971v-410.094c21.058 4.829 43.946 12.218 68.65 22.144 24.68 9.926 49.067 21.681 73.15 35.215 24.082 13.559 47.273 28.606 69.551 45.165 22.29 16.559 42.006 34.337 59.176 53.311 17.168 18.948 30.862 38.678 41.104 59.138 10.218 20.485 15.34 41.262 15.34 62.333v132.787z"  horiz-adv-x="1024" />

    
    <glyph glyph-name="msnui-card" unicode="&#59059;" d="M62.181 582.303v112.492c0 31.065 25.181 56.246 56.246 56.246h787.45c31.065 0 56.246-25.181 56.246-56.246v-112.493h-899.943zM962.124 526.057v-449.971c0-31.065-25.181-56.246-56.246-56.246h-787.45c-31.065 0-56.246 25.181-56.246 56.246v449.971h899.943zM540.275 244.826h56.246c15.53 0 28.123 12.593 28.123 28.123 0 15.535-12.593 28.123-28.123 28.123h-56.246c-15.535 0-28.123-12.588-28.123-28.123 0-15.531 12.589-28.123 28.123-28.123zM146.55 132.332h224.986c15.53 0 28.123 12.593 28.123 28.123 0 15.535-12.593 28.123-28.123 28.123h-224.986c-15.53 0-28.123-12.588-28.123-28.123 0-15.531 12.593-28.123 28.123-28.123zM146.55 244.826h281.232c15.53 0 28.123 12.593 28.123 28.123 0 15.535-12.593 28.123-28.123 28.123h-281.232c-15.53 0-28.123-12.588-28.123-28.123 0-15.531 12.593-28.123 28.123-28.123z"  horiz-adv-x="1024" />

    
    <glyph glyph-name="huiyuan" unicode="&#58943;" d="M854.656 150.368c-36.864 17.472-68.288 24.448-95.104 26.24-9.344 29.248 25.088 79.104 40.32 98.88 99.264 106.368 61.76 425.472-150.592 395.84C637.888 669.728 627.136 666.08 616.768 661.536c64.512-104.064 56.768-274.176-12.864-348.8C595.136 301.344 580.672 280.864 570.304 259.296c7.168-19.2 11.264-40.192 13.184-57.536 23.744-4.032 50.368-11.776 80.32-25.984 135.296-64.448 146.176-294.656 146.176-294.656l178.112 0C988.096-119.008 978.24 91.424 854.656 150.368zM591.36 175.776c-40.384 19.264-74.816 26.88-104.064 28.736-10.176 32 27.456 86.592 44.032 108.224C633.6 422.24 603.136 737.824 405.504 747.488c0 0 0 0-0.064 0C393.152 748.064 380.288 747.744 366.656 745.824 205.824 723.36 117.76 416.608 272.192 314.464 291.776 279.584 296.192 226.4 297.024 205.28c-31.616 0-70.528-6.912-117.056-29.504-133.44-64.448-144.128-294.656-144.128-294.656l701.76 0C737.472-119.008 726.656 111.328 591.36 175.776zM384.256 182.496C383.488 183.072 382.08 183.776 381.184 184.224 382.912 183.968 384.64 183.968 386.432 183.776 385.792 183.392 384.768 182.88 384.256 182.496z"  horiz-adv-x="1024" />

    
    <glyph glyph-name="anquan" unicode="&#58886;" d="M929.675728 593.02987c-132.937708 4.807493-417.805688 153.844877-417.805688 153.844877l-4.748141 0c0 0-277.04685-149.037385-409.984558-153.844877-11.078313-56.089459 7.164167-402.240177 100.537787-540.059056 61.813834-92.947925 251.857145-175.691441 308.655755-196.71322 0 0 3.520173-3.240811 11.078313-0.401136 73.339332 27.562752 237.346663 92.947925 311.728744 197.113333C932.006819 210.019663 940.542216 535.592716 929.675728 593.02987zM679.611415 329.380144l-134.493134 0 0-62.958914 134.493134 0 0-52.206012-134.493134 0 0-120.002095-63.832817 0L481.285464 214.215218 347.910804 214.215218 347.910804 266.42123l133.373637 0 0 62.958914L347.910804 329.380144l0 52.717665 108.434641 0-70.610174 125.798101 69.910233 0c0 0 55.241139-102.014418 57.684794-111.272269 2.864234 10.024308 58.542324 111.272269 58.542324 111.272269l69.968561 0L570.302871 382.09781l109.308545 0L679.611415 329.380144z"  horiz-adv-x="1024" />

    
    <glyph glyph-name="qunfengzhifuchenggong" unicode="&#59028;" d="M512.01844 896C229.22742 896 0 666.765204 0 383.988936c0-282.761516 229.22742-511.988936 512.01844-511.988936 282.768892 0 511.996312 229.22742 511.996312 511.988936C1024.014752 666.765204 794.787331 896 512.01844 896zM810.239788 537.716908 436.629629 164.210011c-3.031484-2.751201-6.483393-4.049355-10.134451-4.049355-3.997724 0-7.75942 1.556309-10.577004 4.381269L243.22683 337.240645c-2.82496 2.82496-4.381269 6.57928-4.381269 10.577004 0 3.990348 1.556309 7.744668 4.388645 10.569628 5.635168 5.642544 15.489336 5.642544 21.13188 0l161.841433-161.841433 362.605355 362.612731c5.731054 5.723678 15.703236 5.723678 21.434291 0C816.147863 553.235747 816.147863 543.624983 810.239788 537.716908z"  horiz-adv-x="1025" />

    
    <glyph glyph-name="jinggao" unicode="&#58959;" d="M512 896C229.254842 896 0.010628 666.755786 0.010628 384.010628c0-282.766414 229.244214-512.010628 511.989372-512.010628 282.766414 0 511.989372 229.244214 511.989372 512.010628C1024.010628 666.755786 794.78767 896 512 896zM580.146217 91.76411l-136.271178 0L443.875039 208.373638l136.271178 0L580.146217 91.76411zM580.146217 304.556305l-136.271178 0L443.875039 676.23589l136.271178 0L580.146217 304.556305z"  horiz-adv-x="1024" />

    
    <glyph glyph-name="tuichu" unicode="&#59003;" d="M887.001194 312.652135 886.692295 312.652135 883.673738 315.525621 883.673738 400.690199 474.870904 400.690199 474.870904 463.84794 883.673738 463.84794 883.673738 551.696148 1004.630382 436.553078 1004.630382 436.220065 887.001194 312.652135ZM670.468514 835.521678 168.062845 835.521678 360.76209 740.080762C386.375425 727.394859 407.18035 696.288332 407.18035 670.62294L410.201204 104.395033C412.409429 104.908334 414.707222 105.188524 417.072001 105.188524L671.234063 105.188524 671.234063 304.613877 731.712385 304.613877 731.712385 74.949363C731.712385 58.248925 718.173662 44.710202 701.473224 44.710202L417.072001 44.710202C414.819375 44.710202 412.62761 44.963982 410.515845 45.431349L411.390866-118.611889C411.390866-127.22048 404.42897-130.503535 395.846789-125.947756L57.030771 62.014275C36.204792 73.069942 19.37536 99.164424 19.407513 120.312698L20.522917 857.494448C19.777273 860.122958 19.369618 862.893478 19.369618 865.760839 19.369618 869.030113 19.894784 872.174986 20.854399 875.123878 22.351046 886.355239 29.313709 893.146036 39.134546 894.134741 42.398462 895.340097 45.926109 896 49.608779 896L700.707675 896C717.408113 896 730.946836 882.46166 730.946836 865.760839 730.946836 863.662471 730.732483 861.614246 730.325594 859.636452 730.732483 857.658658 730.946836 855.610433 730.946836 853.512065L730.946836 563.752003 670.468514 563.752003 670.468514 835.521678Z"  horiz-adv-x="1024" />

    
    <glyph glyph-name="chongzhi1" unicode="&#58952;" d="M166.4 300.8 38.4 428.8c-6.4 6.4-12.8 6.4-19.2 0s-6.4-12.8 0-19.2l121.6-128-121.6-121.6c-6.4-6.4-6.4-12.8 0-19.2 0 0 6.4-6.4 6.4-6.4s6.4 0 6.4 6.4l121.6 121.6C172.8 275.2 172.8 294.4 166.4 300.8zM153.6 160c-6.4-6.4-6.4-12.8 0-19.2 0 0 6.4-6.4 6.4-6.4 0 0 6.4 0 6.4 6.4l121.6 121.6c6.4 6.4 6.4 12.8 6.4 19.2s0 12.8-6.4 19.2L166.4 428.8c-6.4 6.4-12.8 6.4-19.2 0-6.4-6.4-6.4-12.8 0-19.2l121.6-128L153.6 160zM806.4 467.2l-51.2-89.6c-12.8-25.6-19.2-44.8-25.6-51.2l0 0c-6.4 19.2-32 70.4-76.8 140.8L608 467.2 697.6 320 627.2 320l0-32 83.2 0 0-44.8L627.2 243.2l0-32 83.2 0 0-64 44.8 0 0 64L832 211.2l0 32-83.2 0L748.8 288 832 288 832 320 768 320l89.6 153.6L806.4 473.6zM902.4 697.6 121.6 697.6C57.6 697.6 0 646.4 0 576l0-57.6c0-12.8 12.8-25.6 25.6-25.6s25.6 12.8 25.6 25.6L51.2 576c0 38.4 32 70.4 70.4 70.4l780.8 0c38.4 0 70.4-32 70.4-70.4l0-441.6c0-38.4-32-70.4-70.4-70.4L121.6 64c-12.8 0-32 6.4-44.8 12.8-12.8 6.4-25.6 6.4-32-6.4-6.4-12.8-6.4-25.6 6.4-32 19.2-12.8 44.8-25.6 70.4-25.6l780.8 0c70.4 0 121.6 57.6 121.6 121.6L1024 576C1024 646.4 966.4 697.6 902.4 697.6z"  horiz-adv-x="1024" />

    
    <glyph glyph-name="dianhua" unicode="&#58911;" d="M736.704-65.6 287.232-65.6c-62.016 0-112.32 50.432-112.32 112.384L174.912 721.216c0 62.016 50.368 112.384 112.32 112.384l449.408 0c62.016 0 112.384-50.432 112.384-112.384l0-674.432C849.088-15.232 798.656-65.6 736.704-65.6L736.704-65.6zM792.896 721.216c0 30.976-25.216 56.192-56.192 56.192L287.232 777.408c-30.976 0-56.192-25.216-56.192-56.192l0-674.432c0-30.976 25.216-56.192 56.192-56.192l449.408 0c30.976 0 56.192 25.216 56.192 56.192L792.832 721.216 792.896 721.216zM708.608 215.424 315.328 215.424c-30.976 0-56.192 25.216-56.192 56.192L259.136 693.12c0 30.976 25.216 56.192 56.192 56.192l393.216 0c30.976 0 56.192-25.216 56.192-56.192l0-421.504C764.8 240.576 739.584 215.424 708.608 215.424L708.608 215.424zM708.608 693.12 315.328 693.12l0-421.504 393.216 0L708.544 693.12 708.608 693.12zM512 18.688c-46.464 0-84.288 37.824-84.288 84.288 0 46.464 37.824 84.288 84.288 84.288 46.464 0 84.224-37.824 84.224-84.288C596.224 56.512 558.464 18.688 512 18.688L512 18.688zM540.032 131.072 483.904 131.072l0-56.192 56.128 0L540.032 131.072 540.032 131.072z"  horiz-adv-x="1024" />

    
    <glyph glyph-name="zhuti" unicode="&#59306;" d="M876.572788 373.698377c-1.886977-12.375865-9.657964-30.331819-35.880185-45.48903-56.489572-32.697703-150.21828-83.990926-174.010149-96.958262-13.143345-24.431435-66.067718-122.221646-98.141204-178.503487-16.117073-28.124548-36.055171-34.041304-50.030463-34.041304-0.031722 0-0.031722 0-0.031722 0-14.613836 0-29.1806 6.460132-43.234687 19.218714-47.183626 42.643216-125.994576 117.105115-146.013515 136.083351-27.757181 4.732791-138.338718 23.743774-200.584388 35.752272-17.924231 3.533476-32.649608 14.07046-40.372499 29.084409-5.78782 11.256368-10.281157 30.05962 1.471514 55.658647 26.989701 59.047838 74.126254 157.557432 85.957721 182.196599-3.437286 27.117614-16.996093 135.060045-23.760147 198.905142-1.886977 17.460674 3.901867 35.096333 15.829524 48.351218 12.791327 14.278191 30.667463 21.48943 49.854455 19.426445 63.669088-6.332219 173.259042-19.426445 200.584388-22.705118 24.335245 11.879562 121.085776 58.936297 180.133613 86.34146 9.91379 4.573155 19.85828 6.92369 29.596062 6.92369 28.748764 0 52.172243-20.642133 58.328453-51.421136 12.599969-62.997799 30.93864-166.70272 35.639708-193.484689 18.851347-19.682271 91.953272-96.031147 135.060045-143.07151C872.72004 408.874527 879.307062 391.28594 876.572788 373.698377L876.572788 373.698377zM825.375755 396.914124C776.017604 450.685795 687.245791 543.022807 686.365748 543.982668c-2.942005 3.069919-4.956895 6.971785-5.676279 11.208273-0.207731 1.215688-22.193465 127.001509-36.551474 198.936865-0.799202 3.917216-4.285606 16.836457-16.196891 16.836457-3.453658 0-7.30743-1.006933-11.464099-2.942005-67.282383-31.179117-183.955662-88.180342-185.170327-88.771813-3.693112-1.790786-7.850805-2.558265-11.975752-2.01489-1.295506 0.224104-133.63765 16.165168-205.988468 23.424502-0.079818 0-0.207731 0-0.287549 0-7.30743 0-11.128455-2.89391-13.319353-5.40408-3.677762-4.124947-5.644557-9.91379-5.068436-15.110139 7.674796-72.623018 24.255427-202.934922 24.463158-204.325595 0.511653-4.109598-0.159636-8.266267-1.966795-11.960403-0.591471-1.215688-57.657164-120.04712-88.339977-187.201589-3.565199-7.754614-4.41352-14.214746-2.350534-18.131963 1.935072-3.725858 6.588045-5.820566 10.360975-6.53995 70.719668-13.718443 204.644867-36.519752 206.036563-36.727483 4.189416-0.671289 8.058536-2.686179 11.112082-5.580089 1.006933-0.87902 96.414887-91.281983 150.090367-139.889027 8.314363-7.563256 13.143345-8.106632 14.437827-8.106632 3.485381 0 8.314363 4.621251 12.727882 12.391215 36.343743 63.828724 100.011808 181.988868 100.636025 183.155437 1.983167 3.64604 5.004991 6.667863 8.650007 8.650007 1.134847 0.671289 114.418936 62.373583 178.6314 99.516528 8.698103 5.036713 14.278191 10.568706 14.94948 14.854313C834.681702 384.154519 831.49922 390.199189 825.375755 396.914124L825.375755 396.914124zM935.333076-39.670256c-4.157693-4.157693-9.689686-6.299473-15.141862-6.299473-5.548366 0-11.048637 2.142803-15.238053 6.299473l-171.915441 171.915441c-8.362458 8.394181-8.362458 21.98471 0 30.426987 8.394181 8.394181 21.98471 8.394181 30.379914 0l171.915441-171.915441C943.727257-17.684522 943.727257-31.275052 935.333076-39.670256L935.333076-39.670256z"  horiz-adv-x="1024" />

    
    <glyph glyph-name="iconset0335" unicode="&#59114;" d="M234.666667 597.333333c-12.8 0-21.333333-8.533333-21.333333-21.333333 0-12.8 8.533333-21.333333 21.333333-21.333333 12.8 0 21.333333 8.533333 21.333333 21.333333C256 588.8 247.466667 597.333333 234.666667 597.333333zM149.333333 597.333333c-12.8 0-21.333333-8.533333-21.333333-21.333333 0-12.8 8.533333-21.333333 21.333333-21.333333 12.8 0 21.333333 8.533333 21.333333 21.333333C170.666667 588.8 162.133333 597.333333 149.333333 597.333333zM704 597.333333 405.333333 597.333333c-12.8 0-21.333333-8.533333-21.333333-21.333333 0-12.8 8.533333-21.333333 21.333333-21.333333l298.666667 0c12.8 0 21.333333 8.533333 21.333333 21.333333C725.333333 588.8 716.8 597.333333 704 597.333333zM896 853.333333 298.666667 853.333333c-46.933333 0-85.333333-38.4-85.333333-85.333333l0-21.333333c0-12.8 8.533333-21.333333 21.333333-21.333333 12.8 0 21.333333 8.533333 21.333333 21.333333L256 768c0 23.466667 19.2 42.666667 42.666667 42.666667l597.333333 0c23.466667 0 42.666667-19.2 42.666667-42.666667l0-597.333333c0-23.466667-19.2-42.666667-42.666667-42.666667l-21.333333 0c-12.8 0-21.333333-8.533333-21.333333-21.333333s8.533333-21.333333 21.333333-21.333333l21.333333 0c46.933333 0 85.333333 38.4 85.333333 85.333333L981.333333 768C981.333333 814.933333 942.933333 853.333333 896 853.333333zM320 597.333333c-12.8 0-21.333333-8.533333-21.333333-21.333333 0-12.8 8.533333-21.333333 21.333333-21.333333 12.8 0 21.333333 8.533333 21.333333 21.333333C341.333333 588.8 332.8 597.333333 320 597.333333zM725.333333 682.666667 128 682.666667c-46.933333 0-85.333333-38.4-85.333333-85.333333l0-597.333333c0-46.933333 38.4-85.333333 85.333333-85.333333l597.333333 0c46.933333 0 85.333333 38.4 85.333333 85.333333L810.666667 597.333333C810.666667 644.266667 772.266667 682.666667 725.333333 682.666667zM768 0c0-23.466667-19.2-42.666667-42.666667-42.666667L128-42.666667c-23.466667 0-42.666667 19.2-42.666667 42.666667L85.333333 469.333333l682.666667 0L768 0zM768 512 85.333333 512l0 85.333333c0 23.466667 19.2 42.666667 42.666667 42.666667l597.333333 0c23.466667 0 42.666667-19.2 42.666667-42.666667L768 512z"  horiz-adv-x="1024" />

    
    <glyph glyph-name="weixin" unicode="&#58940;" d="M670.024 527.749c10.26 0 20.381-0.788 30.536-1.902-27.361 127.435-163.539 222.082-319.067 222.082-173.814 0-316.203-118.451-316.203-268.934 0-86.832 47.341-158.128 126.509-213.513l-31.583-95.102 110.56 55.386c39.524-7.748 71.228-15.809 110.717-15.809 9.93 0 19.771 0.451 29.473 1.187-6.123 21.148-9.772 43.275-9.772 66.341 0.071 138.134 118.657 250.264 268.829 250.264v0zM500.047 613.462c23.887 0 39.592-15.705 39.592-39.471 0-23.679-15.706-39.543-39.592-39.543-23.627 0-47.411 15.863-47.411 39.543-0 23.835 23.73 39.471 47.411 39.471v0zM278.751 534.449c-23.731 0-47.62 15.863-47.62 39.543 0 23.767 23.888 39.471 47.62 39.471s39.488-15.636 39.488-39.471c0-23.679-15.757-39.543-39.488-39.543v0zM958.709 281.292c0 126.404-126.543 229.428-268.653 229.428-150.485 0-268.916-103.095-268.916-229.428 0-126.754 118.499-229.462 268.916-229.462 31.515 0 63.272 7.887 94.89 15.809l86.69-47.567-23.767 79.048c63.482 47.706 110.839 110.838 110.839 182.172v0zM602.842 320.867c-15.705 0-31.618 15.633-31.618 31.618 0 15.739 15.914 31.583 31.618 31.583 24.011 0 39.576-15.844 39.576-31.583 0-15.985-15.566-31.618-39.576-31.618v0zM776.781 320.867c-15.566 0-31.445 15.633-31.445 31.618 0 15.739 15.809 31.583 31.445 31.583 23.801 0 39.576-15.844 39.576-31.583-0.001-15.985-15.776-31.618-39.576-31.618v0zM776.781 320.867z"  horiz-adv-x="1024" />

    
    <glyph glyph-name="weibiaoti12" unicode="&#58942;" d="M960 320 64 320c-35.2 0-64 28.8-64 64 0 35.2 28.8 64 64 64l896 0c35.2 0 64-28.8 64-64C1024 348.8 995.2 320 960 320zM960 696 64 696c-35.2 0-64 28.8-64 64 0 35.2 28.8 64 64 64l896 0c35.2 0 64-28.8 64-64C1024 724.8 995.2 696 960 696zM64 72l896 0c35.2 0 64-28.8 64-64 0-35.2-28.8-64-64-64L64-56c-35.2 0-64 28.8-64 64C0 43.2 28.8 72 64 72z"  horiz-adv-x="1024" />

    
    <glyph glyph-name="mokuai" unicode="&#58903;" d="M64.00097 433.784726l398.212893 0L462.213863 831.99903 64.00097 831.99903 64.00097 433.784726 64.00097 433.784726zM561.783314 831.99903l0-398.214304 398.218538 0L960.001852 831.99903 561.783314 831.99903 561.783314 831.99903zM64.00097-64.001852l398.212893 0 0 398.218538L64.00097 334.216686 64.00097-64.001852 64.00097-64.001852zM561.783314-64.001852l398.218538 0 0 398.218538L561.783314 334.216686 561.783314-64.001852 561.783314-64.001852zM561.783314-64.001852"  horiz-adv-x="1024" />

    
    <glyph glyph-name="youxiang" unicode="&#58930;" d="M893.421013 632.085238c-1.982144-16.412808-9.237385-32.210609-21.676695-44.729737L581.597101 297.208285c-29.696346-29.696346-78.243015-29.696346-107.939361 0L183.510524 587.355501c-12.519128 12.519128-19.770276 28.396747-21.676695 44.729737-0.38374-3.130294-0.611937-6.259564-0.611937-9.465582l0-396.939451c0-41.983183 34.348296-76.335572 76.336596-76.335572l580.14196 0c41.980113 0 76.332503 34.352389 76.332503 76.335572L894.03295 622.619656C894.03295 625.825674 893.804752 628.954945 893.421013 632.085238L893.421013 632.085238 893.421013 632.085238zM581.597101 352.777905l304.193117 304.19414c-12.598946 24.883737-38.473243 41.983183-68.089771 41.983183L237.558487 698.955228c-29.616528 0-55.499012-17.099447-68.089771-41.983183L473.65774 352.777905C503.349993 323.082582 551.900755 323.082582 581.597101 352.777905L581.597101 352.777905 581.597101 352.777905z"  horiz-adv-x="1024" />

    
    <glyph glyph-name="3" unicode="&#58882;" d="M512 145.490683c-19.080745 0-31.801242 12.720497-31.801242 31.801242L480.198758 463.503106c0 19.080745 12.720497 31.801242 31.801242 31.801242s31.801242-12.720497 31.801242-31.801242l0-286.21118C537.440994 158.21118 524.720497 145.490683 512 145.490683zM651.925466 361.73913 365.714286 361.73913c-19.080745 0-31.801242 12.720497-31.801242 31.801242 0 19.080745 12.720497 31.801242 31.801242 31.801242l286.21118 0c19.080745 0 31.801242-12.720497 31.801242-31.801242C683.726708 374.459627 671.006211 361.73913 651.925466 361.73913zM651.925466 247.254658 365.714286 247.254658c-19.080745 0-31.801242 12.720497-31.801242 31.801242 0 19.080745 12.720497 31.801242 31.801242 31.801242l286.21118 0c19.080745 0 31.801242-12.720497 31.801242-31.801242C683.726708 259.975155 671.006211 247.254658 651.925466 247.254658zM512 431.701863c-6.360248 0-19.080745 0-25.440994 6.360248L352.993789 571.627329c-12.720497 12.720497-12.720497 31.801242 0 44.521739 12.720497 12.720497 31.801242 12.720497 44.521739 0l133.565217-133.565217c12.720497-12.720497 12.720497-31.801242 0-44.521739C524.720497 431.701863 518.360248 431.701863 512 431.701863zM512 431.701863c-6.360248 0-19.080745 0-25.440994 6.360248-12.720497 12.720497-12.720497 31.801242 0 44.521739l133.565217 133.565217c12.720497 12.720497 31.801242 12.720497 44.521739 0 12.720497-12.720497 12.720497-31.801242 0-44.521739L531.080745 438.062112C524.720497 431.701863 518.360248 431.701863 512 431.701863zM512-121.639752c-279.850932 0-508.819876 228.968944-508.819876 508.819876s228.968944 508.819876 508.819876 508.819876 508.819876-228.968944 508.819876-508.819876c0-25.440994 0-50.881988-6.360248-82.68323 0-19.080745-19.080745-31.801242-38.161491-25.440994-19.080745 0-31.801242 19.080745-25.440994 38.161491 6.360248 25.440994 6.360248 44.521739 6.360248 69.962733 0 248.049689-197.167702 445.217391-445.217391 445.217391S66.782609 628.869565 66.782609 380.819876s197.167702-445.217391 445.217391-445.217391c25.440994 0 57.242236 0 82.68323 6.360248 19.080745 6.360248 31.801242-6.360248 38.161491-25.440994 6.360248-19.080745-6.360248-31.801242-25.440994-38.161491C575.602484-121.639752 543.801242-121.639752 512-121.639752zM989.018634 31.006211l-318.012422 0c-19.080745 0-31.801242 12.720497-31.801242 31.801242s12.720497 31.801242 31.801242 31.801242l318.012422 0c19.080745 0 31.801242-12.720497 31.801242-31.801242S1001.73913 31.006211 989.018634 31.006211zM830.012422-128c-19.080745 0-31.801242 12.720497-31.801242 31.801242l0 318.012422c0 19.080745 12.720497 31.801242 31.801242 31.801242s31.801242-12.720497 31.801242-31.801242l0-318.012422C861.813665-108.919255 842.732919-128 830.012422-128z"  horiz-adv-x="1024" />

    
    <glyph glyph-name="chongzhi" unicode="&#58884;" d="M693.095316 614.239143l-131.632817-223.935003 103.718481 0 0-49.478312-120.846571 0 0-68.193688 120.846571 0 0-50.115659-120.846571 0 0-99.276514-62.164435 0L482.169975 222.516481 356.88022 222.516481l0 50.115659 125.289755 0 0 68.193688L356.88022 340.825828l0 49.478312 106.893053 0-130.364204 223.935003 70.099647 0c60.895822-111.230417 97.898433-181.748475 111.012698-211.562689l1.268612 0c4.441967 12.262847 16.596562 37.002611 36.474732 74.219292l74.536749 137.343396L693.095316 614.239143 693.095316 614.239143zM693.095316 614.239143M784.470674 274.551478c-15.061578 0-27.247797-12.187435-27.247797-27.247797s12.187435-27.247797 27.247797-27.247797l71.98128 0c-61.204765-128.843816-192.338895-217.986027-344.464118-217.986027-210.6687 0-381.478892 170.782216-381.478892 381.475243 0 210.696675 170.810191 381.465512 381.478892 381.465512 192.121175 0 350.635679-142.189179 377.137878-326.968701l55.08064 0C917.333181 653.046759 734.255278 819.506206 511.987837 819.506206 271.197197 819.506206 76.012135 624.311414 76.012135 383.543883c0-240.762665 195.185062-435.972053 435.975702-435.972053 164.236031 0 307.128238 90.894915 381.475243 225.064956l0-61.57574c0-15.061578 12.187435-27.247797 27.276989-27.247797 15.004412 0 27.247797 12.187435 27.247797 27.247797L947.987865 247.302465c0 3.297419 0 27.247797-27.247797 27.247797L784.470674 274.550262 784.470674 274.551478zM784.470674 274.551478"  horiz-adv-x="1024" />

    
    <glyph glyph-name="erweima" unicode="&#58904;" d="M242.373-20.211 53.86-20.211 53.86 788.21l188.513 0c14.872 0 26.931 12.064 26.931 26.947s-12.059 26.947-26.931 26.947L26.926 842.104C12.056 842.105 0 830.041 0 815.158l0-862.316c0-14.88 12.056-26.947 26.926-26.947l215.447 0c14.872 0 26.931 12.067 26.931 26.95C269.304-32.272 257.245-20.211 242.373-20.211zM997.055 842.105 781.474 842.105c-14.88 0-26.947-12.064-26.947-26.947s12.067-26.947 26.947-26.947l188.632 0 0-808.421L781.474-20.21c-14.88 0-26.947-12.062-26.947-26.945 0-14.883 12.067-26.95 26.947-26.95l215.582 0c14.88 0 26.945 12.067 26.945 26.947L1024.001 815.158C1024 830.041 1011.936 842.105 997.055 842.105zM781.474 383.995c0 14.886-12.064 26.95-26.947 26.95L269.474 410.945c-14.883 0-26.947-12.064-26.947-26.95 0-14.883 12.064-26.945 26.947-26.945l485.053 0C769.409 357.05 781.474 369.112 781.474 383.995z"  horiz-adv-x="1025" />

    
    <glyph glyph-name="lianjie" unicode="&#58889;" d="M505.27849 879.535931c-278.223923 0-503.768469-225.544546-503.768469-503.767461 0-278.223923 225.544546-503.768469 503.768469-503.768469 278.222915 0 503.768469 225.544546 503.768469 503.768469C1009.04696 653.991385 783.501406 879.535931 505.27849 879.535931zM568.887881 259.395028 454.498232 145.131382c-49.383136-49.281326-130.164229-49.281326-179.541317 0l-2.141045 2.138021c-49.380112 49.273261-49.380112 129.975729 0 179.32056l80.064388 79.85371c-0.406234-23.514195 3.876863-47.172538 12.846268-69.330939l-51.757035-51.686473c-26.812452-26.708626-26.812452-70.288563 0-97.061702l2.140037-2.136005c26.81346-26.741891 70.415574-26.741891 97.232058 0l114.422914 114.233405c26.81346 26.777171 26.81346 70.348036 0 97.092951l-2.139029 2.137013c-4.183303 4.176247-8.801065 7.633772-13.699057 10.518739l41.837062 41.811862c4.518975-3.427284 8.906907-7.126735 13.015617-11.233429l0.003024 0 2.104756-2.103748C618.201463 389.408053 618.201463 308.706594 568.887881 259.395028zM735.819816 426.127373l-80.033139-79.888991c0.407242 23.519235-3.843599 47.139273-12.817036 69.301707l51.724778 51.685465c26.816484 26.741891 26.816484 70.31578 0 97.093959l-2.139029 2.103748c-26.81346 26.778179-70.41759 26.778179-97.161497 0L480.934691 452.189855c-26.816484-26.776163-26.816484-70.348036 0-97.126216l2.106772-2.071491c4.180279-4.174231 8.803081-7.670061 13.695025-10.522771l-41.866295-41.845126c-4.486718 3.463573-8.86961 7.162016-12.981344 11.271734l-2.110804 2.069475c-49.378096 49.343823-49.378096 130.014034 0 179.321568l114.393681 114.267678c49.378096 49.30955 130.158181 49.30955 179.536277 0l2.143061-2.138021 0-0.003024C785.2342 556.108142 785.2342 475.439948 735.819816 426.127373z"  horiz-adv-x="1025" />

    
    <glyph glyph-name="hetongguizeguankong" unicode="&#59048;" d="M984.57088 638.58688C962.74944 676.22912 975.872 724.54656 1013.76 746.496l-40.77056 70.59456c-11.648-6.84544-25.22112-10.68544-39.61856-10.68544-43.58144 0-78.83776 35.52256-78.83776 79.36l-81.41312 0c0.07168-13.50656-3.26144-27.264-10.56256-39.808-7.24992-12.53888-17.4848-22.25664-29.27104-28.92288l-78.14144 0c-0.2048 0.11264-0.41472 0.19968-0.61952 0.31744l-0.18432-0.31744L104.832 817.03424c-35.64544 0-64.83456-29.184-64.83456-64.83456L39.99744-62.208c0-35.64544 29.184-64.76288 64.83456-64.76288L839.168-126.97088c35.64544 0 64.82944 29.12256 64.82944 64.76288 0 0 0 364.37504 0 606.336 21.64736 8.54528 46.85824 7.56224 68.66944-4.92544l40.77056 70.58944C1001.78944 616.38656 991.68256 626.10944 984.57088 638.58688zM233.7536 581.70368l243.84512 0c23.04512 0 41.7536-23.32672 41.7536-52.0704s-18.70336-52.06528-41.7536-52.06528L233.7536 477.568c-23.04512 0-41.7536 23.32672-41.7536 52.06528S210.70848 581.70368 233.7536 581.70368zM734.80704 58.92608 233.7536 58.92608c-23.04512 0-41.7536 23.24992-41.7536 52.0704 0 28.73856 18.70336 52.0704 41.7536 52.0704l501.04832 0c23.05024 0 41.7536-23.33184 41.7536-52.0704C776.56064 82.176 757.85728 58.92608 734.80704 58.92608zM734.80704 268.288 233.7536 268.288c-23.04512 0-41.7536 23.23968-41.7536 52.0704 0 28.65664 18.70336 51.97824 41.7536 51.97824l0 0.08704 501.04832 0c23.05024 0 41.7536-23.32672 41.7536-52.06528C776.56064 291.52768 757.85728 268.288 734.80704 268.288zM813.75744 594.36544c-46.40256 0-83.968 37.57056-83.968 83.968 0 46.33088 37.57056 83.96288 83.968 83.96288 46.40256 0 83.97312-37.56544 83.97312-83.96288C897.73056 631.99744 860.16 594.36544 813.75744 594.36544z"  horiz-adv-x="1024" />

    
    <glyph glyph-name="baocun" unicode="&#58906;" d="M947.2 621.81888c0 8.05888 0 25.78432-9.18528 36.59776-0.05632 0.06144 0.0512 0.11264 0.0512 0.1536l-91.1104 91.45856c0 0-0.05632 0.05632 0 0-10.46016 9.99424-22.3744 12.84608-36.67456 12.84608L175.0016 762.87488c-50.75456 0-77.63968-27.73504-77.63968-71.96672l0-705.80224c0-45.62432 29.27616-76.48768 78.69952-76.48768l707.91168 0c42.41408 0 63.22688 29.85984 63.22688 63.58016L947.2 638.2848M751.72864 476.11392c0-14.34624-12.02176-25.99424-26.77248-25.99424L273.1264 450.11968c-21.65248 0.11264-35.51232 14.49984-35.28704 30.848L237.83936 647.8592c-0.05632 17.18784 14.46912 31.93344 35.61984 31.40608l443.70432 0c22.15424 0.14848 33.45408-13.21984 34.56512-33.0496L751.72864 476.11392zM751.45216-35.44064 238.67392-35.44064l0.10752 239.37024c0 28.87168 14.58176 46.0544 46.976 46.0544l419.05152 0c33.33632-0.30208 46.63808-17.2288 46.63808-46.10048L751.44704-35.44064z"  horiz-adv-x="1024" />

    
    <glyph glyph-name="weixinzhifu" unicode="&#58960;" d="M404.511405 295.134043c-4.042059-2.043542-8.602935-3.223415-13.447267-3.223415-11.197016 0-20.934798 6.169513-26.045189 15.278985l-1.959631 4.296863-81.56569 178.973184c-0.880043 1.954515-1.430582 4.14746-1.430582 6.285147 0 8.251941 6.686283 14.944364 14.938224 14.944364 3.351328 0 6.441713-1.108241 8.94165-2.966565l96.242971-68.521606c7.037277-4.609994 15.433504-7.305383 24.464181-7.305383 5.40101 0 10.533914 1.00284 15.328104 2.75167l452.645171 201.459315C811.496653 732.725356 677.866167 795.222759 526.648117 795.222759c-247.448742 0-448.035176-167.158091-448.035176-373.361453 0-112.511493 60.353576-213.775828 154.808832-282.214547 7.582699-5.405103 12.537548-14.292518 12.537548-24.325012 0-3.312442-0.712221-6.358825-1.569752-9.515724-7.544837-28.15013-19.62599-73.202209-20.188808-75.314313-0.940418-3.529383-2.416026-7.220449-2.416026-10.917654 0-8.245801 6.692423-14.933107 14.944364-14.933107 3.251044 0 5.89015 1.202385 8.629541 2.7793l98.085946 56.621579c7.377014 4.266164 15.188934 6.89913 23.790846 6.89913 4.577249 0 9.003048-0.703011 13.174044-1.978051 45.75509-13.159718 95.123474-20.476357 146.239666-20.476357 247.438509 0 448.042339 167.162184 448.042339 373.372709 0 62.451354-18.502399 121.275087-51.033303 173.009356L407.778822 297.022043 404.511405 295.134043z"  horiz-adv-x="1024" />

    
    <glyph glyph-name="kefu1" unicode="&#59107;" d="M888.839671-64.535573c-16.458857 144.17361-114.487497 263.348873-246.994394 310.36877 81.742722 44.505633 137.216151 131.155109 137.216151 230.768851 0 145.028071-117.565603 262.597767-262.59265 262.597767S253.877151 621.630119 253.877151 476.602048c0-99.644441 55.504128-186.320523 137.282666-230.809783C261.042341 199.565431 164.266227 83.715913 145.307434-57.009156c-1.438769-3.228531-2.309602-6.753821-2.309602-10.513448l0.23536-2.420119c0-9.033747 4.614088-16.98586 11.610432-21.644973 2.858094-2.635013 6.65763-4.263094 10.827603-4.263094l1.817392 0c0.580215-0.038886 1.157359-0.088004 1.746784-0.088004 0.589424 0 1.166569 0.049119 1.74576 0.088004L862.866113-95.850789c0.579191-0.039909 1.156336-0.088004 1.744737-0.088004 13.934361 0 25.235754 11.296277 25.235754 25.230638l-0.23536 2.341325C889.611244-67.006857 889.044332-65.838242 888.839671-64.535573zM297.892621 476.530416c0 120.677477 97.831142 218.508619 218.508619 218.508619 120.6785 0 218.508619-97.831142 218.508619-218.508619 0-120.6785-97.830119-218.508619-218.508619-218.508619C395.723763 258.021797 297.892621 355.851916 297.892621 476.530416zM484.364593 216.169597c10.540054-1.288343 21.210068-2.153036 32.104185-2.153036 10.894118 0 21.570271 0.870834 32.120558 2.159176 143.734612-14.086833 259.794931-121.783671 286.87059-261.294075L197.698664-45.118338C224.780463 94.352157 340.66989 202.067414 484.364593 216.169597zM889.044332 570.491415l-16.000416 0C864.688621 758.824781 706.138582 863.94084 512.406253 863.94084c-193.731306 0-352.287485-105.116059-360.63664-293.449425l-16.812921 0c-16.052604 0-29.064966-13.011338-29.064966-29.064966L105.891725 383.903809c0-16.052604 13.011338-29.063943 29.064966-29.063943l28.531823 0c16.051581 0 29.062919 13.011338 29.062919 29.063943l0 23.437805c0.474814 1.595334 0.776689 3.338025 0.845251 5.231141 1.497097 40.531112 0.60989 142.199653 0.60989 142.199653 0 174.806281 142.831033 266.74318 318.398654 266.74318 175.562505 0 318.39456-91.936899 318.39456-266.74318 0 0 0.802272-104.297414-0.574075-140.418077-0.193405-4.958942 0.37453-8.93858 1.219781-12.07706L831.445496 383.903809c0-16.052604 13.011338-29.063943 29.064966-29.063943l28.531823 0c16.051581 0 29.062919 13.011338 29.062919 29.063943L918.105205 541.426449C918.107251 557.480077 905.095913 570.491415 889.044332 570.491415z"  horiz-adv-x="1024" />

    
    <glyph glyph-name="tuichu1" unicode="&#58939;" d="M689.664 723.008l0-133.781333c89.28-58.176 148.394667-158.698667 148.394667-273.216 0-180.032-145.984-325.994667-326.058667-325.994667-180.032 0-326.016 145.962667-326.016 325.994667 0 101.781333 46.634667 192.618667 119.722667 252.437333L305.706667 709.226667C164.373333 634.901333 67.968 486.784 67.968 316.053333 67.968 70.826667 266.794667-128 512.042667-128c245.205333 0 443.989333 198.826667 443.989333 444.053333C956.010667 498.112 846.464 654.464 689.664 723.008zM577.344 436.010667c0-28.693333-29.248-51.989333-65.344-51.989333l0 0c-36.053333 0-65.322667 23.274667-65.322667 51.989333L446.677333 844.010667C446.677333 872.725333 475.946667 896 512 896l0 0c36.096 0 65.344-23.274667 65.344-51.989333L577.344 436.010667z"  horiz-adv-x="1024" />

    
    <glyph glyph-name="hetongguizeguankong2" unicode="&#58987;" d="M777.481481 289.185185c53.096296 0 102.4-18.962963 140.325926-49.303704L917.807407 634.311111c0 18.962963-11.377778 49.303704-26.548148 64.474074l-166.874074 170.666667C709.214815 884.622222 682.666667 896 659.911111 896L94.814815 896C53.096296 896 18.962963 861.866667 18.962963 820.148148l0-826.785185c0-41.718519 34.133333-75.851852 75.851852-75.851852l512 0c-34.133333 37.925926-56.888889 91.022222-56.888889 147.911111C549.925926 186.785185 652.325926 289.185185 777.481481 289.185185zM640.948148 801.185185c0 22.755556 11.377778 26.548148 26.548148 11.377778l170.666667-170.666667c15.17037-15.17037 11.377778-26.548148-11.377778-26.548148l-109.985185 0c-41.718519 0-75.851852 34.133333-75.851852 75.851852L640.948148 801.185185zM163.081481 710.162963l337.540741 0c15.17037 0 26.548148-11.377778 26.548148-26.548148 0-15.17037-11.377778-26.548148-26.548148-26.548148L163.081481 657.066667c-15.17037 0-26.548148 11.377778-26.548148 26.548148C136.533333 698.785185 147.911111 710.162963 163.081481 710.162963zM163.081481 558.459259l618.192593 0c15.17037 0 26.548148-11.377778 26.548148-26.548148 0-15.17037-11.377778-26.548148-26.548148-26.548148L163.081481 505.362963c-15.17037 0-26.548148 11.377778-26.548148 26.548148C136.533333 547.081481 147.911111 558.459259 163.081481 558.459259zM136.533333 380.207407c0 15.17037 11.377778 26.548148 26.548148 26.548148l451.318519 0c15.17037 0 26.548148-11.377778 26.548148-26.548148 0-15.17037-11.377778-26.548148-26.548148-26.548148L163.081481 353.659259C147.911111 353.659259 136.533333 365.037037 136.533333 380.207407zM777.481481 251.259259c-106.192593 0-189.62963-83.437037-189.62963-189.62963 0-106.192593 83.437037-189.62963 189.62963-189.62963 106.192593 0 189.62963 83.437037 189.62963 189.62963C967.111111 167.822222 883.674074 251.259259 777.481481 251.259259zM777.481481-86.281481c-83.437037 0-151.703704 68.266667-151.703704 151.703704 0 83.437037 68.266667 151.703704 151.703704 151.703704s151.703704-68.266667 151.703704-151.703704C929.185185-21.807407 860.918519-86.281481 777.481481-86.281481zM879.881481 107.140741l-53.096296 7.585185-26.548148 49.303704c-7.585185 15.17037-30.340741 15.17037-37.925926 0l-26.548148-49.303704-53.096296-7.585185c-7.585185 0-15.17037-7.585185-18.962963-15.17037-3.792593-7.585185 0-15.17037 7.585185-18.962963l41.718519-37.925926L701.62963-21.807407c0-7.585185 3.792593-15.17037 7.585185-18.962963s15.17037-7.585185 22.755556-3.792593l49.303704 26.548148 49.303704-26.548148c3.792593-3.792593 7.585185-3.792593 7.585185-3.792593 7.585185 0 7.585185 3.792593 11.377778 3.792593 7.585185 7.585185 7.585185 11.377778 7.585185 18.962963L853.333333 27.496296l41.718519 37.925926c3.792593 7.585185 3.792593 18.962963 3.792593 26.548148C891.259259 99.555556 887.466667 103.348148 879.881481 107.140741z"  horiz-adv-x="1024" />

    
    <glyph glyph-name="zhuanqian" unicode="&#58941;" d="M292.318088 664.408874l-59.711844 0 0 59.717984c0 16.748419-13.586409 30.330735-30.334828 30.330735-16.756606 0-30.335852-13.581293-30.335852-30.330735l0-59.717984-59.719007 0C95.466091 664.408874 81.884798 650.821441 81.884798 634.077116c0-16.758652 13.581293-30.340968 30.331758-30.340968L171.935564 603.736147l0-59.71696c0-16.749442 13.580269-30.331758 30.335852-30.331758 16.748419 0 30.334828 13.581293 30.334828 30.331758l0 59.71696 59.711844 0c16.756606 0 30.336875 13.582316 30.336875 30.340968C322.653939 650.821441 309.074693 664.408874 292.318088 664.408874L292.318088 664.408874zM292.318088 664.408874M453.969445 788.311564l-37.265667 0L416.703777 825.577231c0 10.452029-8.476028 18.930104-18.930104 18.930104-10.455099 0-18.928057-8.478075-18.928057-18.930104l0-37.265667-37.261574 0c-10.455099 0-18.931127-8.472958-18.931127-18.924987 0-10.456122 8.475005-18.930104 18.931127-18.930104l37.261574 0 0-37.264644c0-10.453052 8.472958-18.92601 18.928057-18.92601 10.453052 0 18.930104 8.472958 18.930104 18.92601l0 37.264644 37.265667 0c10.453052 0 18.92601 8.472958 18.92601 18.930104C472.894432 779.838606 464.422497 788.311564 453.969445 788.311564L453.969445 788.311564zM453.969445 788.311564M311.309589 841.157037l-22.336683 0L288.972906 863.491674c0 6.269785-5.074565 11.346396-11.343327 11.346396-6.265691 0-11.346396-5.076612-11.346396-11.346396l0-22.334636-22.334636 0c-6.265691 0-11.346396-5.076612-11.346396-11.346396 0-6.259552 5.080705-11.34128 11.346396-11.34128l22.334636 0 0-22.334636c0-6.268761 5.080705-11.346396 11.346396-11.346396 6.267738 0 11.343327 5.076612 11.343327 11.346396L288.972906 818.469361 311.309589 818.469361c6.258528 0 11.34435 5.081728 11.34435 11.34128C322.653939 836.080425 317.574258 841.16113 311.309589 841.157037L311.309589 841.157037zM311.309589 841.157037M853.395755 281.525299c-23.59944 88.116721-74.179318 156.208402-153.206028 202.443331-6.831579 3.996003-13.932286 7.500819-21.019691 11.046568-33.313667 8.486261-77.361794 16.055642-128.554631 16.055642-51.221489 0-95.294176-7.578591-128.609889-16.070992-123.912923-57.743007-175.284838-145.710325-184.243866-274.207651-2.321877-33.371995-0.390902-66.450302 8.033961-99.139753 13.150482-51.55304 58.509462-90.146956 112.968685-90.053835 128.249686 0.294712 256.59761 0 384.852412 0.195451 41.206412 0.099261 72.930887 18.573994 95.949091 52.232514 11.702506 17.118855 17.211976 36.558564 20.310541 56.966319C867.329064 188.192797 865.775689 235.202366 853.395755 281.525299L853.395755 281.525299zM637.029348 161.595075 584.992285 161.595075c-0.677427 0-1.159404-0.580213-1.159404-1.160427l0-24.951225-0.289595 0c0.387832-2.030235 0.677427-4.159731 0.677427-6.289227 0-17.89452-14.798001-32.491953-32.983139-32.491953-18.182068 0-32.983139 14.498173-32.983139 32.491953 0 2.227733 0.293688 4.257969 0.683567 6.289227l-0.683567 0L518.254435 160.438742c0 0.668218-0.575097 1.156334-1.157357 1.156334l-51.552017 0-0.098237 0c-14.508406 0-26.407387 11.607339-26.407387 26.017508 0 14.415286 11.80586 26.022625 26.407387 26.022625l0.098237 0 51.548947 0c0.677427 0 1.16145 0.575097 1.16145 1.156334l0 23.510413c0 0.673334-0.575097 1.154287-1.16145 1.154287l-51.548947 0 0 0.094144-0.098237 0c-14.508406 0-26.407387 11.613479-26.407387 26.018531 0 14.321142 11.80586 26.022625 26.407387 26.022625l0.098237 0 47.197857 0c0.491186 0 0.973162 0.284479 1.067306 0.767478 0.387832 1.071399 0.869809 2.034329 1.448999 3.003398 0.291642 0.481976 0.192381 1.06219-0.190335 1.450022l-58.421457 57.551649c-7.351417 7.152896-4.933349 21.278587 5.318112 31.337666 10.252484 10.058057 24.572603 12.477148 31.824759 5.220898l56.966319-56.193724c0.481976-0.481976 1.258664-0.481976 1.74064 0l52.712444 55.323916c8.320486 8.995867 25.24696 6.769157 35.595635-3.481281 10.251461-10.254531 15.377192-19.537946 5.220898-30.854667l-61.901715-62.388808c-0.289595-0.284479-0.383739-0.575097-0.383739-0.962929 0.094144-0.580213 0.575097-1.063213 1.16145-1.063213l51.936779 0 0-0.093121c14.508406-0.099261 26.209889-11.705576 26.209889-26.027741 0-14.311932-11.702506-25.914154-26.209889-25.914154L584.992285 239.26693c-0.677427 0-1.159404-0.58533-1.159404-1.160427l0-23.505296c0-0.678451 0.57919-1.16145 1.159404-1.16145l52.037063 0 0-0.093121c14.508406-0.098237 26.207843-11.7066 26.207843-26.017508C663.237191 173.202414 651.537754 161.693313 637.029348 161.595075L637.029348 161.595075zM637.029348 161.595075M402.353983 528.70544c34.767782 10.414166 86.447712 21.586601 148.261422 21.586601 61.654075 0 113.226558-11.111036 147.983084-21.507807 6.238062 9.143223 11.384259 18.995595 15.233929 29.658424 3.481281 9.675341 5.414302 19.832658 8.122988 29.7935 6.185874 23.112348 0.192381 43.039149-17.700092 58.318104-24.183747 20.600136-51.744398 23.024343-80.76735 10.934005-2.028189-0.869809-3.38202-1.455139-5.314018 0.481976-37.334229 35.303993-97.305992 35.692849-134.930839 0.771571-1.74064-1.64138-2.994188-2.030235-5.319135-0.963953-15.282024 7.060799-31.238406 8.506727-47.584666 5.1288-31.053188-6.386441-56.679794-32.791782-52.136323-68.86837C381.272894 569.783939 389.235224 548.083751 402.353983 528.70544L402.353983 528.70544zM402.353983 528.70544"  horiz-adv-x="1024" />

    
    <glyph glyph-name="wendingxing" unicode="&#58951;" d="M895.08864-52.77184c-19.74272 0-35.80928 16.06656-35.80928 35.80928L859.27936 540.73856c0 19.74272 16.06656 35.80928 35.80928 35.80928s35.80416-16.06144 35.80416-35.80928l0-557.70112C930.8928-36.70528 914.83648-52.77184 895.08864-52.77184zM701.70624-52.77184c-19.74272 0-35.80928 16.06656-35.80928 35.80928l0 368.38912c0 19.74272 16.06656 35.80928 35.80928 35.80928s35.80416-16.06144 35.80416-35.80928l0-368.38912C737.5104-36.70528 721.44896-52.77184 701.70624-52.77184zM512.91648-52.77184c-19.74272 0-35.80928 16.06656-35.80928 35.80928l0 238.42816c0 19.74272 16.06656 35.80928 35.80928 35.80928 19.74272 0 35.80928-16.06656 35.80928-35.80928l0-238.42816C548.72576-36.70528 532.6592-52.77184 512.91648-52.77184zM319.00672-52.77184c-19.74272 0-35.80928 16.06656-35.80928 35.80928l0 148.3776c0 19.74272 16.06656 35.80416 35.80928 35.80416s35.80928-16.06144 35.80928-35.80416l0-148.3776C354.81088-36.70528 338.74944-52.77184 319.00672-52.77184zM128.14848-52.77184c-19.74272 0-35.80928 16.06656-35.80928 35.80928l0 63.44192c0 19.74272 16.06144 35.80928 35.80928 35.80928s35.80928-16.06656 35.80928-35.80928l0-63.44192C163.95776-36.70528 147.89632-52.77184 128.14848-52.77184zM137.70752 242.35008c-15.37024 0-27.8784 12.50304-27.8784 27.87328 0 12.18048 8.13568 23.15264 19.78368 26.68032 0.10752 0.03072 0.59904 0.16896 0.71168 0.19968 1.3824 0.37888 2.79552 0.65024 4.20864 0.80896 0.27136 0.03072 0.5376 0.07168 0.80896 0.11776 404.06528 77.86496 570.32192 299.6992 623.04256 391.45984 1.43872 2.5088 1.75616 5.50912 0.86016 8.25856-0.89088 2.75456-2.90304 4.99712-5.54496 6.18496l-48.75264 21.90336c-0.38912 0.1792-0.7936 0.32768-1.2032 0.45056-0.80896 0.25088-1.61792 0.54272-2.41664 0.90112-10.0608 4.53632-14.56128 16.42496-10.01984 26.496 1.94048 4.3008 5.20704 7.67488 9.4464 9.74848 0.3328 0.16384 0.66048 0.34816 0.9728 0.54784 1.09568 0.6912 2.25792 1.28 3.46112 1.73056l132.3008 54.72256c1.85344 0.69632 4.09088 1.10592 6.3488 1.10592 7.75168 0 14.80704-4.87424 17.55648-12.1344l47.29344-135.6032c0.14848-0.4608 0.3328-0.91136 0.54784-1.34144 2.66752-5.376 2.78528-11.58656 0.32256-17.03936-3.21024-7.12704-10.3424-11.73504-18.16064-11.73504-2.816 0-5.56544 0.59392-8.1664 1.7664-0.81408 0.36864-1.5872 0.78336-2.32448 1.24416-0.37376 0.23552-0.768 0.44032-1.1776 0.62464l-51.08224 22.94272c-1.36192 0.6144-2.78528 0.90112-4.18816 0.90112-3.87584 0-7.5776-2.21184-9.30304-5.95968-34.176-74.1632-95.15008-140.98944-217.47712-238.35136-140.11904-111.52384-417.3568-175.55456-444.84096-181.69856-0.2304 0.01536-0.46592 0.0256-0.69632 0.0256-1.3056 0-2.60608-0.24064-3.8144-0.7424C144.96256 243.05664 141.38368 242.35008 137.70752 242.35008z"  horiz-adv-x="1024" />

    
    <glyph glyph-name="peichang" unicode="&#59001;" d="M1509.750392 593.913834M2506.191544 593.913834M506.602042-126.120688c-67.864815 0-133.713623 13.296939-195.716728 39.522246-59.874704 25.325141-113.642657 61.574792-159.810335 107.741457-46.167678 46.167678-82.417329 99.934619-107.741457 159.809322-26.225306 62.003105-39.522246 127.851913-39.522246 195.716728S17.108215 510.383701 43.333522 572.386806c25.325141 59.874704 61.574792 113.642657 107.741457 159.810335 46.166665 46.167678 99.934619 82.417329 159.810335 107.741457 62.003105 26.225306 127.850901 39.522246 195.716728 39.522246S640.315666 866.163904 702.318771 839.938598c59.874704-25.325141 113.641645-61.574792 159.809322-107.741457 46.167678-46.166665 82.417329-99.934619 107.741457-159.810335 26.225306-62.003105 39.522246-127.850901 39.522246-195.716728s-13.296939-133.713623-39.522246-195.716728c-25.325141-59.874704-61.574792-113.641645-107.741457-159.809322s-99.934619-82.417329-159.809322-107.741457C640.315666-112.823749 574.466857-126.120688 506.602042-126.120688zM506.602042 828.832839c-249.322672 0-452.162761-202.839076-452.162761-452.162761s202.839076-452.162761 452.162761-452.162761 452.162761 202.839076 452.162761 452.162761S755.924715 828.832839 506.602042 828.832839zM358.478676 486.125799l29.503976 0 0-131.875827c0-33.677749-3.576362-64.372496-10.729087-92.08829l12.517268 12.069716c28.609886-31.592888 53.791243-60.350607 75.549134-86.278221l-27.716808-23.245342c-18.774889 25.630934-40.533793 52.750331-65.267599 81.360216-13.411358-41.426871-35.912469-75.101582-67.502319-101.029196-7.152725 9.538316-14.901847 18.478209-23.246355 26.821704 51.25883 37.550791 76.890776 98.347937 76.890776 182.390425L358.477663 486.125799zM302.151983 554.075669l142.157362 0 0-274.033189-29.504989 0L414.804356 525.018232l-83.148397 0 0-247.657011-29.503976 0L302.151983 554.075669zM462.191156 398.9545l144.839634 0c21.753841 35.46188 38.29401 64.072778 49.620508 85.830669l33.081351-19.669992c-16.690028-25.033523-32.040439-47.088095-46.045158-66.160677l83.595949 0 0-31.292157L462.191156 367.662343 462.191156 398.9545zM468.896329 523.677602l113.547477 0c-8.940906 18.475172-16.8409 33.82457-23.692894 46.045158l28.610898 14.751988c9.237586-14.901847 18.475172-31.145336 27.715795-48.726417l-25.034536-12.069716 125.618206 0 0-31.292157L468.896329 492.386458 468.896329 523.677602zM485.436498 323.405366l211.00031 0 0-181.048783-32.186248 0 0 28.609886-146.628828 0 0-29.057437-32.186248 0L485.435486 323.405366zM492.142684 466.456819l25.480062 17.43426c18.178491-22.352264 33.22716-42.618654 45.151067-60.797146l-28.609886-21.010622C518.663658 428.605297 504.658939 450.063471 492.142684 466.456819zM664.250561 292.559748l-146.628828 0 0-90.747661 146.628828 0L664.250561 292.559748z"  horiz-adv-x="1025" />

    
    <glyph glyph-name="zhifubao" unicode="&#58975;" d="M230.404452 319.463513C218.3168 309.735513 205.360974 295.533078 201.598887 277.479513 196.478887 252.81447 200.530365 221.938643 224.327235 197.718817 253.155061 168.35673 296.964452 160.320557 315.886191 158.940383 367.286539 155.222817 422.070539 180.711513 463.364452 209.784209 479.548104 221.204035 507.262887 244.13273 533.753322 279.505252 474.383583 310.15847 400.277148 344.061774 321.050713 340.744904 280.580452 339.053078 251.5968 330.66073 230.404452 319.463513ZM983.262609 183.919304C1009.463652 245.426087 1024 313.032348 1024 384 1024 666.312348 794.334609 896 512 896 229.665391 896 0 666.312348 0 384 0 101.665391 229.665391-128 512-128 682.384696-128 833.491478-44.27687 926.630957 84.123826 838.633739 127.866435 693.604174 199.858087 604.271304 243.422609 561.641739 194.82713 498.621217 146.120348 427.430957 124.928 382.70887 111.638261 342.394435 106.562783 300.232348 115.177739 258.493217 123.725913 227.750957 143.270957 209.830957 162.860522 200.704 172.855652 190.21913 185.566609 182.628174 200.681739 183.340522 198.767304 183.830261 197.632 183.830261 197.632 183.830261 197.632 179.46713 205.156174 176.128 217.132522 174.413913 222.920348 173.256348 228.953043 172.78887 235.27513 172.432696 239.415652 172.343652 243.778783 172.588522 248.32 172.210087 256.022261 172.521739 264.102957 174.258087 272.384 178.44313 292.61913 187.080348 316.193391 209.430261 338.075826 258.493217 386.114783 324.207304 388.697043 358.244174 388.496696 408.665043 388.207304 496.283826 366.146783 570.056348 340.057043 590.491826 383.577043 603.603478 430.124522 612.062609 461.156174L305.307826 461.156174 305.307826 494.32487 462.825739 494.32487 462.825739 560.662261 272.13913 560.662261 272.13913 593.830957 462.825739 593.830957 462.825739 660.146087C462.825739 669.250783 464.62887 676.730435 479.410087 676.730435L554.028522 676.730435 554.028522 593.830957 761.321739 593.830957 761.321739 560.662261 554.028522 560.662261 554.028522 494.32487 719.849739 494.32487C719.849739 494.32487 703.198609 401.497043 651.130435 310.00487 766.686609 268.733217 929.257739 205.156174 983.262609 183.919304Z"  horiz-adv-x="1024" />

    
    <glyph glyph-name="dianhua1" unicode="&#58931;" d="M506.189667 240.322693c3.924379-7.848759 11.773138-11.773138 19.621896-15.697517 19.621896-15.697517 39.243793-11.773138 47.092551-7.848759l39.243793 58.865689 0 0c7.848759 7.848759 15.697517 11.773138 23.546276 19.621896 7.848759 3.924379 15.697517 7.848759 27.470655 7.848759l0 0c7.848759 3.924379 19.621896 0 27.470655 0l3.924379 0c7.848759-3.924379 15.697517-7.848759 23.546276-15.697517L863.306134 173.609269l3.924379 0c7.848759-7.848759 11.773138-15.697517 15.697517-23.546276l0 0c3.924379-7.848759 7.848759-19.621896 7.848759-27.470655 0-11.773138 0-23.546276-3.924379-31.395034l0 0c-3.924379-11.773138-11.773138-19.621896-19.621896-27.470655-7.848759-7.848759-19.621896-15.697517-35.319413-23.546276l0-3.924379c-11.773138-7.848759-31.395034-15.697517-47.092551-19.621896-82.411965-27.470655-168.747285-23.546276-251.158227 3.924379-7.848759 3.924379-19.621896 7.848759-27.470655 11.773138l0 62.790068c15.697517-3.924379 31.395034-11.773138 47.092551-15.697517 70.638827-23.546276 145.20101-31.395034 211.915457-7.848759 15.697517 3.924379 27.470655 11.773138 35.319413 15.697517l3.924379 3.924379c7.848759 3.924379 15.697517 11.773138 23.546276 15.697517 0 3.924379 3.924379 3.924379 3.924379 7.848759l0 0 0 0c0 0 0 0 0 3.924379 0 3.924379 0 3.924379 0 3.924379l0 0c0 3.924379-3.924379 3.924379-3.924379 3.924379l0 3.924379L682.785711 244.247072l0 0c-3.924379 0-3.924379 0-7.848759 0l0 0-3.924379 0 0 0c-3.924379 0-3.924379 0-3.924379 0l0 0 0 0c-3.924379 0-3.924379-3.924379-3.924379-3.924379l0 0 0 0-47.092551-62.790068c0-3.924379-3.924379-7.848759-7.848759-7.848759 0 0-47.092551-31.395034-102.032838-3.924379L506.189667 240.322693zM298.198589 742.64017l113.805976-145.20101 0-3.924379c3.924379-7.848759 7.848759-15.697517 11.773138-23.546276 0-7.848759 3.924379-19.621896 0-27.470655 0-11.773138-3.924379-19.621896-7.848759-27.470655l0-3.924379c-7.848759-7.848759-11.773138-11.773138-19.621896-19.621896l-3.924379 0-54.94131-39.243793c-3.924379-7.848759-7.848759-27.470655 7.848759-47.092551 23.546276-35.319413 51.016931-70.638827 82.410941-98.108458l0 0 0 0c23.546276-23.546276 51.016931-47.092551 78.487585-66.714448l0-74.563206c-3.924379 3.924379-11.773138 7.848759-15.697517 11.773138-39.243793 27.470655-74.563206 54.94131-105.957217 86.335321l0 0c-31.395034 31.395034-62.790068 66.714448-86.335321 105.957217-47.092551 62.790068-7.848759 117.730355-7.848759 117.730355 0 3.924379 3.924379 3.924379 7.848759 7.848759l58.865689 43.168172 3.924379 3.924379c0 0 0 0 3.924379 0l0 3.924379c0 0 0 0 0 3.924379l0 3.924379c0 3.924379 0 3.924379 0 3.924379l0 0 0 0L251.107061 707.32178l0 0c-3.924379 0-3.924379 0-3.924379 3.924379l-3.924379 0c0 0 0 0-3.924379 0l-3.924379 0 0 0c-3.924379 0-3.924379-3.924379-7.848759-3.924379-3.924379-7.848759-11.773138-15.697517-15.697517-23.546276-7.848759-11.773138-15.697517-23.546276-19.621896-39.243793-23.546276-66.714448-15.697517-141.27663 7.848759-211.915457 23.546276-78.487585 74.563206-153.049768 137.352251-215.839837 51.016931-51.016931 105.957217-94.184079 168.747285-121.654734l0-62.790068c-78.487585 31.395034-149.125389 82.410941-211.915457 141.27663-66.714448 70.638827-121.654734 153.049768-153.049768 239.386112-27.470655 82.410941-31.395034 168.747285-3.924379 251.158227 7.848759 19.621896 15.697517 35.319413 23.546276 47.092551l0 0 0 0c7.848759 15.697517 15.697517 27.470655 23.546276 35.319413 7.848759 7.848759 15.697517 15.697517 27.470655 19.621896l3.924379 0c7.848759 3.924379 15.697517 3.924379 27.470655 3.924379 11.773138 0 19.621896-3.924379 27.470655-7.848759l3.924379 0L298.198589 742.64017zM298.198589 742.64017 298.198589 742.64017 298.198589 742.64017 298.198589 742.64017zM298.198589 742.64017 298.198589 742.64017 298.198589 742.64017 298.198589 742.64017z"  horiz-adv-x="1024" />

    
    <glyph glyph-name="danxingshensuo" unicode="&#58898;" d="M892.518 815.36 132.765 815.36c-41.38 0-74.91-33.535-74.91-74.905l0-306.239 0-12.07 0-383.844c0-41.38 33.54-74.91 74.91-74.91l54.675 0 0.49 0.58c1.985-0.375 4.027-0.58 6.12-0.58l395.939 0 153.39 0 149.14 0c41.375 0 74.905 33.54 74.905 74.91L967.424 740.456C967.422 781.83 933.883 815.36 892.518 815.36zM901.888 66.392c0-20.69-16.76-37.46-37.465-37.46L743.378 28.932l-97.45 0L242.852 28.932l-48.802 0-33.2 0c-20.685 0-37.46 16.755-37.46 37.46L123.39 422.146l0 12.07L123.39 712.365c0 20.69 16.76 37.46 37.46 37.46l703.573 0c20.69 0 37.465-16.76 37.465-37.46L901.888 66.392zM306.677 626.976l64.065-2.363c18.66 1.42 32.635 17.7 31.215 36.36-1.417 18.657-17.7 32.635-36.357 31.215l-156.68 5.778c-18.66-1.42-32.637-17.7-31.217-36.36 0.005-0.06 0.017-0.115 0.022-0.175 0.003-0.058 0-0.115 0.005-0.175l0.052-0.277c0.21-2.22 0.62-4.373 1.23-6.438l28.14-147.285c1.417-18.66 17.697-32.637 36.357-31.218 18.66 1.42 32.635 17.7 31.217 36.357l-11.833 61.938 129.91-130.3c12.955-13.295 34.237-13.573 47.532-0.617 13.295 12.955 13.57 34.235 0.615 47.532L306.677 626.976zM719.493 626.976l-64.065-2.363c-18.66 1.42-32.635 17.7-31.215 36.36 1.415 18.657 17.695 32.635 36.355 31.215l156.68 5.778c18.66-1.42 32.64-17.7 31.22-36.36-0.005-0.06-0.02-0.115-0.02-0.175-0.005-0.058 0-0.115-0.01-0.175l-0.05-0.277c-0.21-2.22-0.62-4.373-1.23-6.438l-28.14-147.285c-1.42-18.66-17.7-32.637-36.36-31.218-18.66 1.42-32.635 17.7-31.215 36.357l11.835 61.938-129.91-130.3c-12.955-13.295-34.24-13.57-47.53-0.617-13.3 12.955-13.57 34.237-0.62 47.532L719.493 626.976zM306.677 150.312l64.065 2.36c18.66-1.42 32.635-17.7 31.215-36.36-1.417-18.66-17.7-32.635-36.357-31.22l-156.68-5.77c-18.66 1.415-32.637 17.695-31.217 36.355 0.005 0.06 0.017 0.115 0.022 0.175 0.003 0.06 0 0.12 0.005 0.175l0.052 0.28c0.21 2.22 0.62 4.375 1.23 6.435l28.14 147.29c1.417 18.66 17.697 32.635 36.357 31.215 18.66-1.42 32.635-17.7 31.217-36.36l-11.833-61.935 129.91 130.3c12.955 13.295 34.237 13.57 47.532 0.615 13.295-12.955 13.57-34.235 0.615-47.53L306.677 150.312zM719.493 150.312l-64.065 2.36c-18.66-1.42-32.635-17.7-31.215-36.36 1.415-18.66 17.695-32.635 36.355-31.22l156.68-5.77c18.66 1.415 32.64 17.695 31.22 36.355-0.005 0.06-0.02 0.115-0.02 0.175-0.005 0.06 0 0.12-0.01 0.175l-0.05 0.28c-0.21 2.22-0.62 4.375-1.23 6.435l-28.14 147.29c-1.415 18.66-17.7 32.635-36.355 31.215-18.66-1.42-32.635-17.7-31.215-36.355l11.83-61.94-129.91 130.3c-12.955 13.295-34.24 13.57-47.53 0.615-13.3-12.955-13.57-34.235-0.62-47.53L719.493 150.312z"  horiz-adv-x="1024" />

    
    <glyph glyph-name="weixin-copy" unicode="&#58964;" d="M571.648 384.060c-10.257 0-20.517-9.525-20.517-21.25 0-9.527 10.255-19.053 20.517-19.053 15.393 0 26.385 9.527 26.385 19.053 0 11.724-10.99 21.25-26.385 21.25v0zM504.225 483c16.123 0 26.385 10.257 26.385 25.651 0 16.123-10.261 25.649-26.385 25.649-15.39 0-30.048-9.527-30.048-25.649-0.001-15.396 14.659-25.651 30.048-25.651v0zM512.287 833.508c-248.427 0-449.813-201.386-449.813-449.813 0-248.425 201.386-449.812 449.813-449.812 248.425 0 449.812 201.386 449.812 449.812 0.001 248.427-201.385 449.813-449.812 449.813v0zM427.275 269.735c-27.119 0-46.906 4.394-72.556 11.725l-74.019-37.38 21.257 63.031c-52.035 36.64-82.818 82.811-82.818 139.243 0 99.67 93.808 175.889 208.137 175.889 101.135 0 191.279-60.097 208.867-145.113-7.328 1.469-13.926 2.199-19.788 2.199-99.67 0-176.619-74.75-176.619-164.894 0-15.388 2.199-29.313 5.863-43.972-5.863-0.728-12.461-0.728-18.324-0.728v0zM732.882 197.915l14.655-52.77-55.697 31.512c-21.252-4.394-41.773-10.99-63.025-10.99-98.206 0-175.889 67.422-175.889 150.968 0 83.547 77.685 150.97 175.889 150.97 93.072 0 176.619-67.423 176.619-150.97 0-46.9-31.512-88.673-72.552-118.721v0zM359.117 534.3c-15.39 0-31.512-9.527-31.512-25.649 0-15.395 16.122-25.656 31.512-25.656 14.66 0 26.385 10.261 26.385 25.656 0 16.122-11.725 25.649-26.385 25.649v0zM686.712 384.060c-10.995 0-20.522-9.525-20.522-21.25 0-9.527 9.527-19.053 20.522-19.053 14.655 0 25.649 9.527 25.649 19.053 0 11.724-10.994 21.25-25.649 21.25v0zM686.712 384.060z"  horiz-adv-x="1024" />

    
    <glyph glyph-name="qq-copy" unicode="&#58968;" d="M512 896c-282.767 0-511.979-229.221-511.979-512s229.211-512 511.979-512 511.979 229.221 511.979 512-229.211 512-511.979 512zM793.886 224.427c-13.223-12.342-35.924 1.102-57.744 31.297-9.477-25.566-21.819-49.149-36.144-70.309 30.855-11.020 50.692-28.212 50.692-47.609 0-33.501-59.287-60.611-132.458-60.611-43.418 0-81.767 9.477-106.009 24.244-24.023-14.767-62.593-24.244-106.009-24.244-73.172 0-132.458 27.109-132.458 60.611 0 19.175 19.836 36.586 50.692 47.609-14.546 21.159-26.668 44.742-36.144 70.309-21.819-29.975-44.519-43.641-57.744-31.297-18.073 16.971-11.241 76.922 15.647 133.785 6.171 13.004 12.783 24.685 19.615 34.823 3.747 165.303 112.622 297.987 246.181 297.987h0.441c133.559 0 242.435-132.462 246.181-297.987 6.833-10.139 13.444-21.821 19.615-34.823 26.67-56.864 33.723-116.814 15.65-133.785z"  horiz-adv-x="1024" />

    
    <glyph glyph-name="dizhi" unicode="&#58945;" d="M511.999488-53.020308c-117.532857 0-228.322126 18.036795-311.960011 50.78771-89.400123 35.006282-138.635477 83.833337-138.635477 137.485281 0 27.15036 13.024641 67.624167 75.074859 106.260116 43.931558 27.352975 105.499799 49.376571 178.050162 63.686485 10.534937 2.079358 20.759813-4.776793 22.838148-15.312754 2.077312-10.534937-4.777817-20.759813-15.312754-22.837124-132.644019-26.163893-221.763756-79.129198-221.763756-131.796722 0-36.011168 41.525766-72.925916 113.927749-101.276614 79.229482-31.024597 184.984085-48.110741 297.782104-48.110741 112.798019 0 218.551598 17.08512 297.78108 48.110741 72.40403 28.350698 113.928772 65.264423 113.928772 101.276614 0 53.358255-90.715071 106.633622-225.734184 132.569318-10.546194 2.025123-17.452487 12.216229-15.426341 22.7614 2.025123 10.547217 12.220323 17.452487 22.7614 15.426341 73.634044-14.144138 136.194892-36.170804 180.917466-63.696718 63.11855-38.848797 76.367295-79.662341 76.367295-107.060341 0-53.651944-49.234331-102.478999-138.635477-137.485281C740.321614-34.984536 629.531322-53.020308 511.999488-53.020308zM512.012791 127.69045c-5.720282 0-11.384281 2.511193-15.223726 7.334036-92.082208 115.657136-145.973606 214.814484-174.967964 277.630135-30.347169 65.7464-40.566928 106.270349-41.764196 111.246687-5.770424 20.85191-8.696056 42.488697-8.696056 64.314795 0 64.276932 25.031093 124.706233 70.481238 170.157401 45.451168 45.451168 105.880469 70.481238 170.157401 70.481238 10.737552 0 19.442818-8.704243 19.442818-19.442818 0-10.737552-8.705266-19.442818-19.442818-19.442818-111.246687 0-201.753003-90.506317-201.753003-201.753003 0-18.428721 2.480494-36.682457 7.372921-54.251601l0.211824-0.830925c0.085958-0.367367 9.552563-40.024575 39.969317-105.638969 28.078499-60.57154 80.263022-156.279323 169.410388-268.251533 6.688329-8.400321 5.300726-20.6319-3.100618-27.320229C520.531815 129.074983 516.256442 127.69045 512.012791 127.69045zM515.917728 127.69045c-4.243651 0-8.518001 1.384533-12.096503 4.233418-8.400321 6.688329-9.788947 18.919908-3.100618 27.320229 171.202197 215.035518 209.017454 372.32689 209.378681 373.890502l0.211824 0.829901c4.892427 17.571191 7.372921 35.823903 7.372921 54.251601 0 111.246687-90.505293 201.753003-201.753003 201.753003-10.737552 0-19.442818 8.705266-19.442818 19.442818 0 10.738575 8.705266 19.442818 19.442818 19.442818 64.276932 0 124.706233-25.031093 170.157401-70.481238 45.450145-45.451168 70.481238-105.880469 70.481238-170.157401 0-21.824051-2.925632-43.459814-8.696056-64.313771-1.195222-4.972245-11.414981-45.497217-41.764196-111.24771-28.994358-62.815651-82.885755-161.972998-174.967964-277.630135C527.303033 130.202667 521.636986 127.69045 515.917728 127.69045zM511.999488 462.486562c-63.685461 0-115.496477 51.811016-115.496477 115.496477s51.811016 115.496477 115.496477 115.496477c63.684438 0 115.496477-51.811016 115.496477-115.496477S575.683926 462.486562 511.999488 462.486562zM511.999488 654.594905c-42.243103 0-76.610842-34.367739-76.610842-76.610842s34.367739-76.610842 76.610842-76.610842 76.610842 34.367739 76.610842 76.610842S554.242592 654.594905 511.999488 654.594905z"  horiz-adv-x="1024" />

    
    <glyph glyph-name="iconplsd" unicode="&#58910;" d="M934.141 315.794h-149.894l0 150.166c0 14.993-12.218 27.191-27.281 27.191-15.152 0-27.28-12.309-27.28-27.507v-149.851l-149.875 0c-15.219 0-27.484-12.218-27.484-27.304 0-15.174 12.174-27.283 27.191-27.283h150.166v-149.869c0-15.243 12.218-27.485 27.28-27.485 15.199 0 27.281 12.175 27.281 27.171l0 150.185h150.211c14.972 0 27.147 12.221 27.147 27.283 0.001 15.174-12.287 27.304-27.462 27.304zM78.934 643.225h634.197c8.975 0 16.552 9.156 16.552 20.452 0 11.386-7.531 20.472-16.821 20.472h-633.635c-9.335 0-16.83-9.152-16.83-20.472-0.001-11.363 7.406-20.452 16.538-20.452zM79.217 370.358h455.703c9.243 0 16.821 9.153 16.821 20.474 0 11.363-7.529 20.45-16.843 20.45l-455.66 0c-9.358 0-16.843-9.153-16.843-20.45 0-11.386 7.531-20.474 16.821-20.474zM585.064 138.416h-505.938c-9.108 0-16.73-9.156-16.73-20.452 0-11.386 7.463-20.472 16.661-20.472l506.053 0c9.2 0 16.685 9.153 16.685 20.472-0 11.364-7.485 20.452-16.731 20.452z"  horiz-adv-x="1024" />

    
    <glyph glyph-name="dianhua11" unicode="&#58958;" d="M706.709504-27.947008c-53.997568 0-124.09856 36.25984-173.268992 66.885632-66.076672 40.308736-136.998912 96.698368-200.660992 157.94176l-20.14208 20.160512c-61.247488 63.660032-117.661696 134.600704-157.960192 200.671232-30.623744 49.156096-66.881536 119.273472-66.881536 173.2608 0 58.025984 41.908224 120.076288 59.635712 144.257024 13.70112 18.532352 62.857216 78.974976 103.960576 78.974976 16.922624 0 35.454976-11.286528 59.63776-36.25984 20.946944-21.766144 41.089024-49.168384 54.790144-68.5056 17.727488-25.792512 34.664448-52.3776 46.739456-75.753472 20.158464-37.064704 21.766144-53.194752 21.766144-62.050304 0-17.727488-8.871936-33.845248-27.40224-45.93664-12.091392-8.871936-26.595328-14.505984-40.298496-20.959232-9.660416-4.026368-24.971264-10.469376-30.623744-15.314944 2.41664-8.050688 10.481664-29.011968 34.6624-63.660032 21.753856-32.231424 50.765824-67.684352 76.556288-94.285824 26.585088-25.792512 61.247488-53.999616 94.271488-76.576768 34.676736-23.351296 55.607296-32.23552 63.690752-34.650112 4.829184 5.64224 11.272192 20.965376 15.29856 30.625792 5.636096 13.71136 12.075008 28.207104 20.959232 40.312832 12.075008 18.520064 27.40224 28.207104 45.922304 28.207104 8.884224 0 24.182784-2.439168 62.050304-22.571008 23.379968-12.10368 49.975296-29.007872 75.769856-46.75584 19.324928-12.875776 46.723072-33.837056 68.487168-54.800384 24.987648-24.15616 36.25984-42.7008 36.25984-59.635712 0-41.091072-61.241344-90.261504-79.75936-103.950336C826.791936 13.948928 764.737536-27.947008 706.709504-27.947008L706.709504-27.947008 706.709504-27.947008zM664.014848 411.25888c-8.884224 0-16.93696 5.648384-18.546688 14.505984-4.028416 25.792512-18.550784 47.546368-41.089024 62.050304-22.573056 15.310848-49.975296 20.156416-77.379584 15.310848-9.660416-1.609728-19.335168 4.845568-20.946944 15.312896-1.622016 9.6768 4.831232 19.351552 14.505984 20.959232 37.064704 6.443008 74.12736-0.804864 103.944192-20.959232 30.625792-20.14208 50.784256-50.765824 57.22112-86.2208 1.609728-9.6768-4.831232-19.351552-14.493696-20.959232C665.624576 411.25888 664.817664 411.25888 664.014848 411.25888L664.014848 411.25888zM773.595136 457.998336c-8.8576 0-16.910336 6.455296-18.518016 15.312896-8.07936 49.168384-37.091328 91.062272-79.794176 120.07424-42.727424 28.209152-95.895552 38.688768-148.28544 29.81888-9.662464-2.414592-19.335168 4.84352-20.946944 14.505984-1.622016 9.6768 4.831232 19.351552 14.508032 20.96128 62.052352 11.272192 124.104704-1.609728 174.87872-35.467264 51.560448-33.841152 85.405696-84.609024 95.8976-143.439872 1.60768-10.479616-4.831232-19.349504-14.524416-21.766144C775.206912 457.998336 774.4 457.998336 773.595136 457.998336L773.595136 457.998336zM919.461888 471.697408c-8.050688 0-16.130048 6.457344-17.737728 15.312896-14.4896 83.818496-62.857216 156.350464-136.18176 203.894784-73.345024 48.351232-162.801664 66.883584-251.424768 50.767872-10.496-1.613824-19.351552 4.829184-21.768192 15.310848-1.609728 9.6768 5.638144 19.337216 15.312896 20.96128 98.322432 16.922624 196.632576-2.428928 278.034432-56.416256 81.375232-53.999616 135.380992-134.58432 152.30976-228.868096 1.613824-9.674752-4.85376-19.349504-15.316992-20.96128C921.882624 471.697408 921.07776 471.697408 919.461888 471.697408L919.461888 471.697408z"  horiz-adv-x="1024" />

    
    <glyph glyph-name="erweima1" unicode="&#58885;" d="M281.6 190.08l205.44 0L487.04 395.52 281.6 395.52 281.6 190.08zM326.4 352.64l113.92 0 0-114.56L326.4 238.08 326.4 352.64zM281.6 442.88l205.44 0 0 205.44L281.6 648.32 281.6 442.88zM326.4 604.8l113.92 0 0-114.56L326.4 490.24 326.4 604.8zM536.96 648.32l0-205.44L742.4 442.88l0 205.44L536.96 648.32zM696.32 490.88 582.4 490.88l0 114.56 113.92 0L696.32 490.88zM372.48 558.72l23.04 0 0-23.04-23.04 0 0 23.04ZM625.92 558.72l23.04 0 0-23.04-23.04 0 0 23.04ZM372.48 305.92l23.04 0 0-23.04-23.04 0 0 23.04ZM695.04 304 648.96 304 648.96 395.52 536.96 395.52 536.96 190.08 557.44 190.08 557.44 326.4 602.88 326.4 602.88 280.32 742.4 280.32 742.4 395.52 695.04 395.52ZM602.88 235.52l46.72 0 0-45.44-46.72 0 0 45.44ZM695.68 235.52l46.72 0 0-45.44-46.72 0 0 45.44Z"  horiz-adv-x="1024" />

    
    <glyph glyph-name="icon4" unicode="&#58902;" d="M475.631698 34.706709c-211.881688 0-384.261711 172.34523-384.261711 384.175753 0 101.287871 39.002292 196.853413 109.835547 269.083481 13.667278 13.925151 35.985586 14.131859 49.91176 0.483001 13.908778-13.649881 14.131859-35.985586 0.483001-49.91176-57.804521-58.942437-89.636506-136.963395-89.636506-219.654722 0-172.914188 140.702556-313.582975 313.668932-313.582975 173.017542 0 313.772286 140.668787 313.772286 313.582975 0 83.829244-32.659841 162.591075-91.963505 221.826178-13.804401 13.770632-13.804401 36.123732-0.034792 49.91176 13.753235 13.821797 36.08894 13.804401 49.91176 0.034792 72.66088-72.557526 112.679315-169.07065 112.679315-271.771707C859.996762 207.051939 687.564551 34.706709 475.631698 34.706709zM475.682863 478.28948c-19.491936 0-35.295877 15.803941-35.295877 35.295877L440.386986 793.509744c0 19.491936 15.803941 35.295877 35.295877 35.295877s35.296901-15.803941 35.296901-35.295877l0-279.923364C510.979764 494.093421 495.175823 478.28948 475.682863 478.28948z"  horiz-adv-x="1024" />

    
    <glyph glyph-name="linedesign-09" unicode="&#58992;" d="M512 808.96c-247.0144 0-448-171.8272-448-383.0016 0-16.8704 1.3312-33.7664 3.9424-50.2528a38.4256 38.4256 0 0 1 75.8528 12.0064 243.072 243.072 0 0 0-2.9952 38.2208C140.8 594.7904 307.328 732.16 512 732.16s371.2-137.3696 371.2-306.2016c0-168.832-166.528-306.2016-371.2-306.2016a30.464 30.464 0 0 1-2.6624-0.1024c-0.3584 0-35.0464-2.2784-65.2288 5.9136a38.912 38.912 0 0 1-27.648-2.944l-136.3456-70.4512 25.0624 86.0672a38.4 38.4 0 0 1-15.5648 42.6752 399.36 399.36 0 0 0-66.8672 55.5776 38.4 38.4 0 1 1-55.424-53.1456 463.872 463.872 0 0 1 56.4736-49.8944L181.3504-12.288a38.4256 38.4256 0 0 1 54.4768-44.8768l203.3408 105.0624c34.1248-6.7072 66.56-5.4272 74.0096-4.9664 246.5024 0.5376 446.8224 172.1344 446.8224 383.0016C960 637.1328 759.0144 808.96 512 808.96zM363.0592 385.408c48.3328 0 87.6544 38.4512 87.6544 85.7344s-39.3216 85.7344-87.6544 85.7344-87.6544-38.4512-87.6544-85.7344 39.296-85.7344 87.6544-85.7344z m0 120.2432c20.096 0 36.4544-15.488 36.4544-34.5344s-16.3584-34.5344-36.4544-34.5344-36.4544 15.488-36.4544 34.5344 16.3328 34.5344 36.4544 34.5344zM748.5952 471.1168c0 47.2832-39.3216 85.7344-87.6544 85.7344s-87.6544-38.4512-87.6544-85.7344 39.3216-85.7344 87.6544-85.7344c48.3328 0.0256 87.6544 38.4768 87.6544 85.7344z m-124.1088 0c0 19.0464 16.3584 34.5344 36.4544 34.5344s36.4544-15.488 36.4544-34.5344-16.3584-34.5344-36.4544-34.5344-36.4544 15.5136-36.4544 34.5344z"  horiz-adv-x="1024" />

    
    <glyph glyph-name="youxiang1" unicode="&#58928;" d="M929.28 629.76H222.72a30.72 30.72 0 0 1-30.72-30.72v-430.08c0-16.96 13.792-30.72 30.72-30.72h706.56a30.72 30.72 0 0 1 30.72 30.72V599.04a30.72 30.72 0 0 1-30.72 30.72z m-73.696-416.096a22.88 22.88 0 0 0-32.576 0l-155.2 155.168-76.128-70.048a22.976 22.976 0 0 0-31.2 0L486.4 366.88l-153.216-153.248a22.944 22.944 0 0 0-32.576 0 23.04 23.04 0 0 0 0 32.576l151.84 151.904-153.248 140.896a23.04 23.04 0 1 0 31.168 33.92L576 347.04l245.536 225.888a23.04 23.04 0 1 0 31.2-33.888l-151.04-138.944 153.824-153.824a23.04 23.04 0 0 0 0.064-32.608z"  horiz-adv-x="1024" />

    
    <glyph glyph-name="yinhangqiazhifu" unicode="&#58973;" d="M79.179294 766.072471h706.379294c43.369412 0 78.848-35.267765 78.848-78.336v-20.449883H239.104a149.232941 149.232941 0 0 1-105.261176-43.670588 148.058353 148.058353 0 0 1-44.092236-105.200941v-347.166118h-10.571294C35.84 171.248941 0.331294 206.486588 0.331294 249.584941V687.736471c0 43.068235 35.478588 78.336 78.848 78.336zM239.104 596.751059h706.379294c43.369412 0 78.848-35.267765 78.848-78.336v-28.491294H160.256v28.491294c0 43.098353 35.478588 78.336 78.848 78.336zM1024.331294 419.237647v-338.944c0-43.098353-35.508706-78.336-78.848-78.336H239.104c-43.369412 0-78.848 35.267765-78.848 78.336V419.237647H1024.331294z"  horiz-adv-x="1024" />

    
    <glyph glyph-name="zaixianchongzhi" unicode="&#58953;" d="M870.44096 721.51552 158.67392 721.51552c-55.86432 0-101.20704-45.04576-101.66272-100.79232l915.11296 0C971.64288 676.46976 926.30528 721.51552 870.44096 721.51552L870.44096 721.51552zM56.99072 569.87648l0-428.07296c0-56.1408 45.52704-101.64736 101.6832-101.64736l711.76704 0c56.16128 0 101.6832 45.50656 101.6832 101.64736L972.12416 569.87648 56.99072 569.87648 56.99072 569.87648zM655.0528 248.12032c0-9.99936-8.1152-18.10944-18.07872-18.10944l-103.51616 0 0-66.05312c0-9.96352-8.08448-18.05312-18.00704-18.05312l-1.75104 0c-9.93792 0-18.03264 8.0896-18.03264 18.05312l0 66.05312L392.16128 230.01088c-9.96352 0-18.0736 8.13056-18.0736 18.10944l0 1.97632c0 9.98912 8.11008 18.0992 18.0736 18.0992l0-0.0256 103.51104 0 0 35.1744L416.47104 303.34464c-9.9584 0-18.0736 8.13056-18.0736 18.11456l0 1.60256c0 10.00448 8.11008 18.11456 18.0736 18.11456l78.16192 0L407.94624 425.62048c-3.51744 3.45088-5.44768 8.04864-5.44768 12.91264 0 4.88448 1.95584 9.48224 5.46816 12.91264 3.45088 3.41504 8.07424 5.27872 12.9792 5.27872 4.90496 0 9.54368-1.88928 13.02016-5.30432l80.79872-79.7184 80.53248 79.49312c3.52256 3.41504 8.1152 5.25824 12.98432 5.25824 4.88448 0 9.47712-1.84832 12.928-5.25824 3.49696-3.38944 5.43744-7.96672 5.44768-12.83584 0-4.88448-1.93536-9.44128-5.44768-12.89216l-85.44256-84.31616 76.89216 0c9.98912 0 18.11968-8.13568 18.11968-18.11456l0-1.58208c0-10.00448-8.13056-18.11456-18.11968-18.11456l-79.1808 0 0-35.1744 103.51616 0c9.96352 0 18.0736-8.10496 18.0736-18.08896l0-1.96096L655.0528 248.1152 655.0528 248.12032z"  horiz-adv-x="1024" />

    
    <glyph glyph-name="zhifubaozhifu" unicode="&#58961;" d="M620.544 308.736c54.272 98.304 73.728 192 73.728 192H512V569.856h216.576v29.696H512V702.976h-98.816v-103.424h-197.12v-29.696h197.12v-69.12H245.76v-29.696h339.968c0-5.12 0-5.12-5.12-9.728 0-34.304-24.576-83.456-44.544-123.392-250.88 98.816-325.12 39.424-344.576 29.696-167.424-118.272-9.728-266.24 14.848-261.12 177.152-39.424 290.816 34.304 369.664 128 5.12-5.12 9.728-5.12 14.848-5.12 54.272-29.696 315.392-152.576 315.392-152.576v147.968c-39.424 0.512-182.272 49.664-285.696 83.968z m-128-44.032c-123.392-157.696-270.848-108.544-295.424-98.304-58.88 14.848-78.848 123.392-5.12 157.696 123.392 39.424 231.424-5.12 310.272-44.544-5.12-10.24-9.728-14.848-9.728-14.848z"  horiz-adv-x="1024" />

    
    <glyph glyph-name="002caozuo_yulan" unicode="&#58914;" d="M633.01097-81.863761v0.465H139.658091c-24.667994 0-47.939988 9.773998-65.625984 27.459993-17.685996 17.686996-27.459993 40.95799-27.459993 65.625984V756.372034c0 24.666994 9.773998 47.938988 27.459993 65.624984s40.95799 27.459993 65.625984 27.459993h605.055852c24.667994 0 47.939988-9.773998 65.624984-27.459993 17.686996-17.685996 27.459993-40.95799 27.459993-65.624984v-209.442949c0-12.799997 10.472997-23.269994 23.271995-23.269994 12.799997 0 23.269994 10.470997 23.269994 23.269994V756.372034C884.341909 833.167015 821.509924 896 744.714943 896H139.658091C62.86211 896 0.030125 833.167015 0.030125 756.372034v-744.684818c0-76.795981 62.832985-139.628966 139.629966-139.628966H633.00997v0.466c10.704997 2.093999 18.616995 11.634997 18.616996 22.805994s-7.911998 20.710995-18.616996 22.805995zM721.442949 703.778047c0 12.799997-10.471997 23.271994-23.271994 23.271994h-511.969875c-12.799997 0-23.271994-10.472997-23.271995-23.271994 0-12.799997 10.471997-23.269994 23.270995-23.269994h511.970875c12.799997 0 23.271994 10.470997 23.271994 23.269994zM186.20008 38.681209h139.629965c12.798997 0 23.270994 10.472997 23.270995 23.271995s-10.471997 23.270994-23.270995 23.270994H186.20008c-12.798997 0-23.269994-10.471997-23.269995-23.269994s10.469997-23.273994 23.269995-23.273995z m0 320.912922h93.085977c12.799997 0 23.270994 10.471997 23.270994 23.271994s-10.471997 23.269994-23.269994 23.269995H186.20008c-12.798997 0-23.269994-10.469997-23.269995-23.269995s10.470997-23.271994 23.269995-23.271994z m831.021797-447.741891l-172.207958 172.209958c39.09599 46.540989 62.599985 106.581974 62.599984 171.973958 0 147.773964-119.847971 267.621935-267.620934 267.621935S372.372034 403.81012 372.372034 256.036156s119.846971-267.619935 267.619935-267.619934c65.625984 0 125.433969 23.502994 171.975958 62.599984l172.208958-172.209958c9.075998-9.074998 23.969994-9.074998 32.811992 0s9.309998 23.969994 0.233 33.045992z m-377.229908 123.10597c-121.94097 0-221.077946 99.135976-221.077946 221.077946s99.136976 221.079946 221.078946 221.079946 221.076946-99.136976 221.076946-221.079946-99.135976-221.077946-221.077946-221.077946z"  horiz-adv-x="1024" />

    
    <glyph glyph-name="zhongmingming" unicode="&#58892;" d="M875.35616 585.10848l-177.94048 191.4368 89.00096 95.72352c29.50656 31.6416 77.29152 31.6416 106.7264 0l71.14752-76.50816c29.49632-31.78496 29.49632-83.29216 0-115.00544l-88.9344-95.64672zM358.53312 29.0816l-177.93536 191.36512L664.2688 736.75776l177.93536-191.44192L358.53312 29.0816zM37.59104-128l108.29312 311.15776 176.4352-189.87008L37.59104-128z"  horiz-adv-x="1024" />

    
    <glyph glyph-name="shangxia" unicode="&#58918;" d="M836.8 262.4H187.2c-32 0-51.2-20.8-35.2-36.8 24-25.6 310.4-324.8 324.8-339.2 17.6-19.2 56-16 72 0C560-102.4 854.4 208 872 225.6c16 17.6-4.8 35.2-35.2 36.8zM187.2 505.6h649.6c30.4 0 51.2 19.2 35.2 36.8-17.6 17.6-312 328-324.8 340.8-14.4 16-52.8 17.6-72 0C462.4 867.2 176 568 152 542.4c-16-16 3.2-36.8 35.2-36.8z"  horiz-adv-x="1024" />

    
    <glyph glyph-name="tihuan" unicode="&#58976;" d="M924.149679 230.904571c-17.928232 1.895212-34.393332-7.650471-41.171453-22.298175-72.798247-131.16483-226.554082-213.435039-392.694834-195.727966-215.401923 22.882813-370.1069 205.055562-345.547986 406.687251 24.485194 201.629641 218.899515 346.567776 434.23079 323.613291 44.086454-4.662774 85.621386-16.029949 123.658726-32.935319l1.020814 0.289759-53.633161-58.803782c-6.194506-6.778121-5.31806-16.981138 1.967907-22.811141 2.624218-2.183947 5.831027-3.351177 9.037836-3.787352l119.0666-20.550402 120.528709-20.913882 0.072696 0.07372c5.682564-0.801702 11.657958 1.091462 15.667493 5.537172 4.081207 4.444686 5.098949 10.421105 3.205785 15.667493L878.750604 712.864799 837.944678 820.421905c-0.947094 2.62217-2.62217 5.099973-5.100996 6.995184-7.212248 5.828979-18.142224 5.028301-24.410451-1.748796l-53.268657-58.514022c-50.498024 24.992017-106.68066 41.751996-166.796039 48.166637C329.969571 842.864447 96.64044 668.996432 67.202713 426.924344 37.836658 184.922905 223.506999-33.612107 481.904939-61.086022c201.338858-21.494425 384.605116 74.036124 470.810117 233.912745 3.498616 4.809189 5.828979 10.493801 6.559009 16.688307 2.474731 20.474635-13.190715 38.986482-35.124386 41.389541z"  horiz-adv-x="1024" />

    
    <glyph glyph-name="dianhua2" unicode="&#59360;" d="M752.882-128c-66.065 0-151.356 44.01-211.274 80.941-80.243 49.445-166.687 117.852-243.415 192.608l-0.277 0.277-24.363 24.367c-74.76 76.722-143.16 163.172-192.614 243.415C44.016 473.526 0 558.818 0 624.882c0 70.697 50.555 145.735 72.29 174.712C89.25 822.21 148.505 896 198.85 896c20.675 0 42.939-13.531 72.199-43.876 25.88-26.831 50.714-60.185 66.988-83.44 21.858-31.222 42.07-63.912 56.924-92.053 24.05-45.562 26.833-65.1 26.833-75.834 0-21.662-11.315-40.45-33.624-55.839-14.69-10.131-32.324-17.76-49.376-25.14-11.501-4.975-29.868-12.915-36.872-18.5 2.446-10.351 13.126-35.349 41.997-77.732 26.9-39.492 61.685-82.29 93.11-114.563 32.266-31.42 75.06-66.21 114.563-93.11 42.371-28.857 67.369-39.543 77.728-41.99 5.578 7.003 13.525 25.364 18.5 36.865 7.374 17.056 15 34.691 25.14 49.382 15.39 22.309 34.178 33.618 55.84 33.618 10.733 0 30.27-2.782 75.839-26.827 28.135-14.854 60.831-35.066 92.05-56.924 23.254-16.28 56.606-41.114 83.443-66.988 30.337-29.26 43.868-51.524 43.868-72.198 0-50.346-73.785-109.601-96.4-126.56C898.618-77.446 823.58-128 752.883-128zM340.529 188.721c73.607-71.702 156.273-137.148 232.805-184.31 74.194-45.725 139.64-71.95 179.55-71.95 35.55 0 86.23 21.713 135.58 58.071 21.632 15.944 41.322 33.7 55.44 49.994 13.25 15.296 18.093 25.274 19.322 29.3-5.118 10.998-35.53 45.388-106.505 94.35-27.842 19.204-56.623 36.854-81.05 49.693-30.668 16.123-43.45 18.909-46.376 19.365-1.137-0.78-4.477-3.571-9.556-12.083-5.683-9.531-11.147-22.163-16.427-34.373-6.503-15.039-13.232-30.59-21.484-43.135-13.416-20.409-29.89-30.761-48.96-30.774-0.345 0-0.704 0.007-1.072 0.019-9.278 0.196-37.536 0.796-114.248 53.041-42.346 28.852-88.336 66.255-123.005 100.07l-0.543 0.536c-33.808 34.679-71.21 80.662-100.059 123.005-52.25 76.712-52.855 104.968-53.051 114.252-0.416 19.417 9.834 36.18 30.452 49.832 12.607 8.345 28.284 15.124 43.444 21.686 12.214 5.28 24.84 10.746 34.373 16.423 8.512 5.073 11.312 8.42 12.084 9.556-0.457 2.926-3.242 15.706-19.364 46.377-12.84 24.42-30.49 53.207-49.695 81.043-48.961 70.982-83.351 101.39-94.35 106.508-4.028-1.232-14.006-6.076-29.302-19.325-16.296-14.112-34.05-33.806-49.988-55.44-36.364-49.343-58.07-100.023-58.07-135.574 0-39.908 26.22-105.35 71.944-179.55 47.165-76.532 112.613-159.198 184.31-232.805l23.801-23.802z m0 0"  horiz-adv-x="1024" />

    
    <glyph glyph-name="QQ" unicode="&#58950;" d="M781.944 521.516c0 72.59-30.38 141.222-79.362 191.357-47.767 48.863-113.21 80.067-185.347 80.067-73.254 0-139.46-29.05-187.344-75.995-47.805-46.865-77.365-111.662-77.365-183.194 0-4.679 0.02-5.05 0.04-5.716l0.195-6.519H212.67c0 3.818-0.04 4.756-0.04 5.422l-0.194 6.813c0 82.632 34.18 157.51 89.443 211.697 55.185 54.107 131.317 87.583 215.357 87.583 83.395 0 158.958-35.961 214.007-92.282 56.028-57.377 90.796-135.995 90.796-219.233h-40.094zM233.89 501.548c-0.02 0-10.884-0.468-8.399-24.099l1.194-11.374-9.26-6.792c-0.019-0.02-13.839-9.945 3.935-35.296l10.846-15.446-14.838-11.726c-0.352-0.294-118.612-91.48-78.422-218.802 14.878 9.044 34.22 24.49 39.329 45.847l18.265 76.21 20.476-75.681c0.078-0.235 23.491-87.955 47.08-103.558l29.972-19.792-32.711-15.035c-0.098-0.058-57.77-6.539-47.786-12l20.672-11.315-14.485-18.52c-0.12-0.155-42.403-53.051 79.733-66.05 145.313-15.464 172.054 33.123 172.133 33.26l5.873 9.788h71.139l4.779-13.31c0.038-0.08 11.155-36.845 151.517-32.674 47.295 1.408 75.25 10.316 90.853 21.848 7.828 5.774 12.04 12.039 13.879 17.99 1.743 5.637 1.448 11.295 0.176 16.033-1.114 4.071-2.034 6.48-2.466 6.733l-25.116 15.368 23.53 17.638c-0.332-0.176-4.582-1.292-51.935 21.298l-26.723 12.764 21.79 20.046c0.116 0.118 44.145 40.093 54.01 94.632l22.004 121.547 17.46-122.232c0-0.078 3.682-24.079 37.393-43.479 16.052 27.23 41.266 104.127-66.324 235.247l-7.243 8.809 3.799 10.61c0.039 0.118 16.325 43.948-22.593 85.41l29.11 27.388c41.992-44.691 38.586-93.3 34.24-114.873 150.774-189.986 49.606-291.605 49.33-291.9l-9.552-9.768-12.53 5.383c-23.256 9.986-39.424 22.787-50.623 35.277-9.944-21.18-22.435-38.721-32.614-51.134 42.44-24.685 49.528-44.947 46.903-58.453a61.765 61.765 0 0 0 6.812-15.974c2.977-11.042 3.603-24.392-0.625-38.114-4.15-13.431-12.82-26.918-28.287-38.35-21.436-15.857-56.906-27.995-113.562-29.68-119.806-3.542-165.221 27.33-181.59 45.83h-26.387c-18.185-18.734-72.08-56.654-202.789-42.736-148.818 15.838-132.512 83.786-116.655 114.814-10.766 20.34 19.655 43.106 42.754 56.79-11.627 17.521-21.573 40.62-28.973 60.609-24.45-26.29-56.693-38.995-56.81-39.035l-18.01-7.204-7.752 17.774c-59.512 136.055 33.593 240.767 69.573 274.498-15.485 32.222-3.68 54.97 5.736 66.441-0.978 55.988 46.298 58.455 46.415 58.455l2.35-39.935z"  horiz-adv-x="1024" />

    
    <glyph glyph-name="move" unicode="&#59009;" d="M192 528h416v-32h-416zM192 400h416v-32h-416zM192 272h416v-32h-416zM736 576h96l-128 128-128-128h96v-384h-96l128-128 128 128h-96z"  horiz-adv-x="1024" />

    
    <glyph glyph-name="phone-channel" unicode="&#59014;" d="M443.2 315.2c-88.7 88.6-173.5 191.3-132.8 231.9 58.1 58.1 108.7 93.9 5.8 222-103 128.2-171.7 29.8-228-26.5-64.9-65-3.4-307.1 235.9-546.5 239.3-239.3 481.5-300.9 546.5-235.9 56.3 56.3 154.7 124.9 26.6 227.9s-163.9 52.4-222-5.8c-40.7-40.5-143.3 44.3-232 132.9z"  horiz-adv-x="1024" />

    
    <glyph glyph-name="shijian" unicode="&#58922;" d="M512.150294-19.274756a415.020932 415.020932 0 1 0 414.719756 414.719756 415.322109 415.322109 0 0 0-414.719756-414.719756z m0 769.50543a354.785674 354.785674 0 1 1 354.484497-354.785674A355.08685 355.08685 0 0 1 512.150294 750.230674zM41.712923 628.555451a30.117629 30.117629 0 0 0-30.117629 30.11763v36.141155A201.48694 201.48694 0 0 0 212.781058 896H255.548092a30.117629 30.117629 0 0 0 0-60.235259H212.781058A140.950505 140.950505 0 0 1 71.830553 694.814236v-36.141155a30.117629 30.117629 0 0 0-30.11763-30.11763zM982.286488 628.555451a30.117629 30.117629 0 0 0-30.11763 30.11763v36.141155A140.950505 140.950505 0 0 1 811.218353 835.764741h-42.767034a30.117629 30.117629 0 0 0 0 60.235259h42.767034a201.48694 201.48694 0 0 0 201.185764-201.185764v-36.141155a30.117629 30.117629 0 0 0-30.117629-30.11763zM341.082159 194.259236a30.117629 30.117629 0 0 0-21.383517 51.501146l162.334022 162.334023V609.280169a30.117629 30.117629 0 0 0 60.235259 0V384.000301l-180.705776-180.705776a30.117629 30.117629 0 0 0-20.479988-9.035289zM192.30107-127.999398a30.117629 30.117629 0 0 0-21.383517 51.501147l150.588147 150.588146a30.117629 30.117629 0 0 0 42.465857-42.465857l-150.588146-150.588147a30.117629 30.117629 0 0 0-21.082341-9.035289zM875.368904-127.999398a30.117629 30.117629 0 0 0-21.383517 8.734113l-150.588147 150.588147a30.117629 30.117629 0 0 0 42.465857 42.465857l150.588147-150.588147a30.117629 30.117629 0 0 0-21.08234-51.19997z"  horiz-adv-x="1024" />

    
    <glyph glyph-name="chajian" unicode="&#59874;" d="M64 195.4112c0-63.2768 51.3152-114.5856 114.5856-114.5856 41.0624 0 77.088 21.6448 97.3376 54.1056h36.3456v-141.6384A57.2992 57.2992 0 0 1 369.5616-64h143.232v53.8496c-32.4608 20.2496-54.1056 56.2752-54.1056 97.3376 0 63.2768 51.3152 114.5856 114.5792 114.5856 63.2768 0 114.5856-51.3152 114.5856-114.5856 0-41.0624-21.6448-77.088-54.1056-97.3376V-64h268.9536a57.2928 57.2928 0 0 1 57.2928 57.2928v262.592h-53.8624c-20.2368-32.4608-56.2752-54.112-97.3248-54.112-63.2768 0-114.5856 51.3152-114.5856 114.5856s51.3152 114.5856 114.5856 114.5856c41.0496 0 77.088-21.6512 97.3248-54.112H960V526.4384a57.2992 57.2992 0 0 1-57.2928 57.2928h-141.6384v36.3456c32.4608 20.2496 54.1056 56.2752 54.1056 97.3376 0 63.2768-51.3152 114.5856-114.5856 114.5856s-114.5792-51.3152-114.5792-114.5856c0-41.0624 21.6448-77.088 54.1056-97.3376v-36.3456H369.5616a57.2992 57.2992 0 0 1-57.2928-57.2928v-270.5472h-36.3456c-20.2496 32.4608-56.2752 54.1056-97.3376 54.1056-63.2704 0-114.5856-51.3152-114.5856-114.5856z"  horiz-adv-x="1024" />

    
    <glyph glyph-name="-xianshiyulan" unicode="&#58891;" d="M978.286933 394.990933c-2.0992 3.490133-52.352 86.536533-134.203733 170.786134C733.9008 679.1936 619.067733 739.1488 512 739.1488c-256.546133 0-457.838933-330.103467-466.286933-344.157867a21.333333 21.333333 0 0 1 0-21.973333c2.0992-3.490133 52.352-86.536533 134.203733-170.794667C290.0992 88.797867 404.932267 28.8512 512 28.8512c256.5376 0 457.838933 330.120533 466.286933 344.1664a21.333333 21.333333 0 0 1 0 21.973333zM512 71.517867c-207.684267 0-385.851733 255.829333-422.741333 312.490666C126.148267 440.6528 304.315733 696.482133 512 696.482133c207.6928 0 385.851733-255.829333 422.741333-312.4736-36.8896-56.661333-215.048533-312.490667-422.741333-312.490666zM512 618.666667c-129.399467 0-234.666667-105.2672-234.666667-234.666667 0-129.390933 105.2672-234.666667 234.666667-234.666667 129.390933 0 234.666667 105.275733 234.666667 234.666667 0 129.399467-105.275733 234.666667-234.666667 234.666667z m0-426.666667c-105.873067 0-192 86.135467-192 192 0 105.873067 86.126933 192 192 192 105.864533 0 192-86.126933 192-192 0-105.864533-86.135467-192-192-192z"  horiz-adv-x="1024" />

    
    <glyph glyph-name="shouji" unicode="&#58932;" d="M754.9 831.6H269.1c-10.3 0-18.7-8.4-18.7-18.7v-857.8c0-10.3 8.4-18.7 18.7-18.7h485.7c10.3 0 18.7 8.4 18.7 18.7V812.9c0.1 10.3-8.3 18.7-18.6 18.7z m-18.7-37.4v-721.6H287.8V794.2h448.4zM475 20.1c0 19.3 15.7 35 35 35s35-15.7 35-35-15.7-35-35-35c-19.3-0.1-35 15.6-35 35z"  horiz-adv-x="1024" />

    
    <glyph glyph-name="mokuai1" unicode="&#59233;" d="M932.274 670.643L515.912 501.048 98.597 670.643 514.95 831.668l417.325-161.025z m-867.98-70.507l415.413-173.397V-42.98c-33.028 14.595-67.318 29.87-102.9 45.74-30.48 13.32-64.948 28.241-103.374 44.762a42470.47 42470.47 0 0 1-115.761 49.566c-13.97 6.346-26.681 14.757-38.116 25.23-11.436 10.47-21.282 21.92-29.53 34.291-8.26 12.398-14.609 25.582-19.058 39.554-4.448 13.971-6.674 27.617-6.674 40.965V600.136z m893.7 0v-361.109c0-16.494-3.173-32.554-9.523-48.1a210.84 210.84 0 0 0-24.306-43.813c-9.835-13.674-20.798-25.747-32.869-36.218-12.059-10.5-23.816-18.582-35.253-24.309-33.668-13.97-68.908-28.565-105.75-43.81a24702.636 24702.636 0 0 0-101.95-41.943c-36.206-15.221-71.77-29.843-106.712-43.814V426.74l416.363 173.396z m0 0"  horiz-adv-x="1024" />

    
    <glyph glyph-name="wangzhan" unicode="&#58920;" d="M512 864C246.912 864 32 649.152 32 384s214.912-480 480-480c265.152 0 480 214.848 480 480S777.152 864 512 864zM320.256 752.96c20.864 10.88 42.688 20.16 65.408 27.392-23.616-34.624-43.968-78.656-59.904-129.6-23.808 15.232-37.76 33.472-37.76 53.248 0 17.984 12.224 34.56 32.256 48.96zM227.136 686.656c7.424-37.568 36.864-71.296 82.752-96.512-11.84-53.376-19.2-112.064-21.12-174.144H97.6a414.464 414.464 0 0 0 129.536 270.656z m0-605.312A414.464 414.464 0 0 0 97.6 352h191.104c1.92-62.08 9.344-120.768 21.184-174.144-45.888-25.088-75.328-58.944-82.752-96.512z m93.12-66.304C300.224 29.44 288 46.08 288 64c0 19.776 13.952 38.08 37.76 53.312 15.936-51.008 36.288-94.976 59.904-129.664a411.392 411.392 0 0 0-65.408 27.392z m159.744-38.656c-40.192 21.184-74.816 81.856-97.92 165.568a425.536 425.536 0 0 0 97.92 16.704v-182.272z m0 245.824a454.592 454.592 0 0 1-111.68-20.288A966.4 966.4 0 0 0 352.64 352H480v-129.792z m0 193.792H352.64a966.4 966.4 0 0 0 15.68 150.08 460.608 460.608 0 0 1 111.68-20.352V416z m0 193.344a432.512 432.512 0 0 0-97.92 16.704c23.104 83.712 57.728 144.32 97.92 165.568v-182.272z m316.864 77.312A414.08 414.08 0 0 0 926.336 416h-191.104c-1.92 62.08-9.344 120.768-21.184 174.144 45.952 25.152 75.392 58.944 82.816 96.512z m-93.12 66.304c20.032-14.4 32.256-30.976 32.256-48.96 0-19.776-13.952-38.016-37.76-53.248-15.936 50.944-36.288 94.976-59.968 129.6a409.6 409.6 0 0 0 65.472-27.392zM544 791.616c40.256-21.248 74.88-81.856 97.92-165.568a432.512 432.512 0 0 0-97.92-16.704V791.616z m0-245.888a460.096 460.096 0 0 1 111.68 20.288c8.64-45.888 14.144-96.448 15.68-150.016H544V545.728z m0-193.728h127.36c-1.536-53.568-7.04-104.128-15.68-150.144a454.016 454.016 0 0 1-111.68 20.288V352z m0-375.616v182.272a425.536 425.536 0 0 0 97.92-16.704c-23.04-83.712-57.664-144.384-97.92-165.568z m159.744 38.656c-20.864-10.88-42.688-20.16-65.408-27.456 23.616 34.688 44.032 78.656 59.968 129.664 23.808-15.232 37.76-33.536 37.76-53.312-0.064-17.856-12.288-34.496-32.32-48.896z m93.12 66.304c-7.424 37.568-36.928 71.36-82.816 96.512a936.96 936.96 0 0 1 21.184 174.144h191.104a414.08 414.08 0 0 0-129.472-270.656z"  horiz-adv-x="1024" />

    
    <glyph glyph-name="mokuai2" unicode="&#59165;" d="M948.495754 576.101158H702.475801V811.463859c0 46.964161-26.01092 84.535491-72.975082 84.535491H97.360644C50.396483 896.179981 0.000325 858.608652 0.000325 811.463859v-531.959443c0-46.964161 50.396158-85.79991 97.360319-85.79991h222.537873V-39.67125c0-46.964161 49.673632-86.522436 96.637793-86.522436h531.959444c46.964161 0 73.878238 39.558274 73.878238 86.522436V492.288193c0 46.964161-26.733446 83.812965-73.878238 83.812965zM63.943837 257.648018v574.40782h574.40782v-255.95468H416.53631c-46.964161 0-96.637794-36.848804-96.637793-83.812965v-234.640175H63.943837z m574.40782 254.509628v-254.509628H384.02266V512.157646h254.328997z m321.523874-575.852871H384.02266V193.704506h245.478059c46.964161 0 72.975082 38.835749 72.975082 85.79991V512.157646h257.39973v-575.852871z"  horiz-adv-x="1024" />

    
    <glyph glyph-name="add" unicode="&#59103;" d="M512 64a32 32 0 0 1 32 32v256h256a32 32 0 0 1 0 64h-256V672a32 32 0 0 1-64 0v-256H224a32 32 0 0 1 0-64h256v-256a32 32 0 0 1 32-32"  horiz-adv-x="1024" />

    
    <glyph glyph-name="addition_fill" unicode="&#59104;" d="M683.968 361.056H544v-139.968a32 32 0 0 0-64 0v139.968h-139.968a32 32 0 0 0 0 64H480v139.968a32 32 0 0 0 64 0v-139.968h139.968a32 32 0 0 0 0-64M512 768C300.256 768 128 595.712 128 384c0-211.744 172.256-384 384-384s384 172.256 384 384c0 211.712-172.256 384-384 384"  horiz-adv-x="1024" />

    
    <glyph glyph-name="addition" unicode="&#59105;" d="M512 64c-176.448 0-320 143.552-320 320S335.552 704 512 704s320-143.552 320-320-143.552-320-320-320m0 704C300.256 768 128 595.744 128 384s172.256-384 384-384 384 172.256 384 384S723.744 768 512 768M683.936 425.056H544v139.968a32 32 0 1 1-64 0v-139.968h-139.936a32 32 0 0 1 0-64H480v-139.968a32 32 0 0 1 64 0v139.968h139.968a32 32 0 0 1 0 64"  horiz-adv-x="1024" />

    
    <glyph glyph-name="close" unicode="&#59113;" d="M544.448 396.8l284.576 284.576a32 32 0 0 1-45.248 45.248L499.2 442.048 214.624 726.624a32 32 0 0 1-45.248-45.248l284.576-284.576-284.576-284.576a32 32 0 0 1 45.248-45.248l284.576 284.576 284.576-284.576a31.904 31.904 0 0 1 45.248 0 32 32 0 0 1 0 45.248L544.448 396.8z"  horiz-adv-x="1024" />

    
    <glyph glyph-name="delete_fill" unicode="&#59122;" d="M649.824 291.424a31.968 31.968 0 1 0-45.248-45.248L505.6 345.152l-98.976-98.976a31.904 31.904 0 0 0-45.248 0 32 32 0 0 0 0 45.248l98.976 98.976-98.976 98.976a32 32 0 0 0 45.248 45.248l98.976-98.976 98.976 98.976a32 32 0 0 0 45.248-45.248L550.848 390.4l98.976-98.976zM512 768C300.288 768 128 595.712 128 384c0-211.744 172.288-384 384-384 211.744 0 384 172.256 384 384 0 211.712-172.256 384-384 384z"  horiz-adv-x="1024" />

    
    <glyph glyph-name="delete" unicode="&#59123;" d="M512 64c-176.448 0-320 143.552-320 320S335.552 704 512 704s320-143.552 320-320-143.552-320-320-320m0 704C300.256 768 128 595.744 128 384s172.256-384 384-384 384 172.256 384 384S723.744 768 512 768M649.824 534.624a31.968 31.968 0 0 1-45.248 0L505.6 435.648l-98.976 98.976a31.968 31.968 0 1 1-45.248-45.248l98.976-98.976-98.976-98.976a32 32 0 0 1 45.248-45.248l98.976 98.976 98.976-98.976a31.904 31.904 0 0 1 45.248 0 31.968 31.968 0 0 1 0 45.248L550.848 390.4l98.976 98.976a31.968 31.968 0 0 1 0 45.248"  horiz-adv-x="1024" />

    
    <glyph glyph-name="editor" unicode="&#59125;" d="M489.376 361.376a31.904 31.904 0 0 1 45.248 0l304 304a31.968 31.968 0 1 1-45.248 45.248l-304-304a31.968 31.968 0 0 1 0-45.248M832 416a32 32 0 0 1-32-32l0.256-288L224 95.744 223.744 672H512a32 32 0 0 1 0 64H223.744A63.84 63.84 0 0 1 160 672.256v-576.512C160 60.608 188.608 32 223.744 32h576.512A63.84 63.84 0 0 1 864 95.744V384a32 32 0 0 1-32 32"  horiz-adv-x="1024" />

    
    <glyph glyph-name="empty" unicode="&#59127;" d="M590.208 441.824v-210.496a32 32 0 1 1 64 0v210.496a32 32 0 1 1-64 0M398.208 441.824v-210.496a32 32 0 1 1 64 0v210.496a32 32 0 1 1-64 0M377.664 636.416l-8.896 63.36 253.504 35.648 8.928-63.392-253.536-35.616z m443.616 62.336l-126.72-17.792-11.872 84.416a36.512 36.512 0 0 1-14.432 24.224c-16.416 12.384-41.28 11.072-54.752 9.216L359.68 763.136c-46.592-6.56-60.16-30.688-57.28-51.072l11.84-84.544-126.72-17.824a32 32 0 1 1 8.928-63.36l45.92 6.432a31.36 31.36 0 0 1-4.192-14.976v-447.936c0-35.328 28.704-64.032 64-64.032h447.968a64.096 64.096 0 0 1 64 64.032V537.792a32 32 0 1 1-64 0v-447.968l-448 0.032V537.792a31.744 31.744 0 0 1-8.992 22.112l537.056 75.488a32 32 0 0 1 27.2 36.16 31.648 31.648 0 0 1-36.16 27.2z"  horiz-adv-x="1024" />

    
    <glyph glyph-name="empty_fill" unicode="&#59128;" d="M821.344 698.752l-126.752-17.824-11.904 84.512a36.48 36.48 0 0 1-14.464 24.192c-16.416 12.384-41.376 11.072-54.688 9.152l-253.792-35.648c-46.624-6.56-60.16-30.688-57.312-51.072l11.008-78.24 0.896-6.336-76.128-10.688-50.656-7.136a32 32 0 1 1 8.928-63.36l23.552 3.328 18.176 2.528 4.224 0.608 50.752 7.136 63.936 8.992 73.088 10.272 192 26.976 192 27.008 16.032 2.24c17.504 2.432 29.696 18.624 27.232 36.128s-18.528 29.76-36.128 27.232zM398.208 441.792a32 32 0 0 0 64 0v-210.496a32 32 0 0 0-64 0v210.496z m192 0a32 32 0 0 0 64 0v-210.496a32 32 0 0 0-64 0v210.496z m-352 40.736v-392.704c0-20.608 9.984-38.816 25.184-50.56 10.816-8.32 24.192-13.44 38.848-13.44h447.936a63.36 63.36 0 0 1 38.816 13.44c15.232 11.712 25.216 29.888 25.216 50.56V501.824H237.344l0.864-19.328z"  horiz-adv-x="1024" />

    
    <glyph glyph-name="enter" unicode="&#59129;" d="M693.792 397.76l-320 297.664a32 32 0 0 1-43.584-46.848l295.36-274.752-295.84-286.848a31.968 31.968 0 1 1 44.544-45.92l320 310.272a31.968 31.968 0 0 1-0.48 46.4"  horiz-adv-x="1024" />

    
    <glyph glyph-name="enterinto" unicode="&#59130;" d="M512 64c-176.448 0-320 143.552-320 320S335.552 704 512 704s320-143.552 320-320-143.552-320-320-320m0 704C300.256 768 128 595.744 128 384s172.256-384 384-384 384 172.256 384 384S723.744 768 512 768M469.376 535.808a31.968 31.968 0 1 1-42.752-47.616l134.016-120.32-134.496-125.856a32 32 0 0 1 43.712-46.72l160 149.696a31.968 31.968 0 0 1-0.48 47.168l-160 143.68z"  horiz-adv-x="1024" />

    
    <glyph glyph-name="enterinto_fill" unicode="&#59131;" d="M629.856 345.024l-160-149.76a31.904 31.904 0 0 0-45.216 1.504 31.936 31.936 0 0 0 1.504 45.216l134.496 125.888-134.016 120.32a32 32 0 1 0 42.752 47.616l160-143.616a31.904 31.904 0 0 0 0.48-47.168M512 768C300.256 768 128 595.744 128 384c0-211.712 172.256-384 384-384s384 172.288 384 384c0 211.744-172.256 384-384 384"  horiz-adv-x="1024" />

    
    <glyph glyph-name="like_fill" unicode="&#59143;" d="M672 704a222.72 222.72 0 0 1-160-67.68A222.592 222.592 0 0 1 352 704c-123.52 0-224-101.184-224-225.6 0-52.256 18.144-103.2 52.928-145.536l285.952-293.984a62.528 62.528 0 0 1 90.208 0l287.808 296.032A227.136 227.136 0 0 1 896 478.4C896 602.816 795.52 704 672 704"  horiz-adv-x="1024" />

    
    <glyph glyph-name="like" unicode="&#59144;" d="M797.184 377.504l-284.384-294.016-284.16 292A162.752 162.752 0 0 0 192 478.4C192 567.488 263.808 640 352 640a159.36 159.36 0 0 0 133.28-72.16L512 527.36l26.72 40.48A159.488 159.488 0 0 0 672 640c88.224 0 160-72.512 160-161.6 0-37.536-12.992-74.08-34.816-100.896M672 704a222.72 222.72 0 0 1-160-67.712A222.624 222.624 0 0 1 352 704c-123.52 0-224-101.216-224-225.6 0-52.288 18.176-103.232 52.96-145.536l285.952-293.984a62.4 62.4 0 0 1 45.088-19.168c17.12 0 33.12 6.816 45.12 19.136l287.744 296.064A226.816 226.816 0 0 1 896 478.4C896 602.784 795.52 704 672 704"  horiz-adv-x="1024" />

    
    <glyph glyph-name="more" unicode="&#59152;" d="M288 439.136A63.264 63.264 0 0 1 256 448a64 64 0 1 1 0-128c11.712 0 22.56 3.392 32 8.896 19.04 11.072 32 31.488 32 55.104 0 23.648-12.96 44.064-32 55.136M544 439.136A63.264 63.264 0 0 1 512 448c-11.712 0-22.56-3.36-32-8.864-19.04-11.072-32-31.488-32-55.136 0-23.616 12.96-44.032 32-55.104 9.44-5.504 20.288-8.896 32-8.896s22.56 3.392 32 8.896c19.04 11.072 32 31.488 32 55.104 0 23.648-12.96 44.064-32 55.136M768 448c-11.712 0-22.56-3.392-32-8.864-19.04-11.104-32-31.52-32-55.136 0-23.616 12.96-44.032 32-55.136 9.44-5.472 20.288-8.864 32-8.864a64 64 0 1 1 0 128"  horiz-adv-x="1024" />

    
    <glyph glyph-name="narrow" unicode="&#59154;" d="M448.544 400H256a32 32 0 0 1 0-64l146.976 0.192-233.6-233.568a32 32 0 0 1 45.248-45.248l233.664 233.632v-147.264a32 32 0 1 1 64 0v192.512a63.84 63.84 0 0 1-63.744 63.744M838.624 694.624a31.968 31.968 0 0 1-45.248 0L576 477.248V624a32 32 0 0 1-64 0v-192.544c0-35.136 28.608-63.712 63.744-63.712h192.512a32 32 0 1 1 0 64l-147.488-0.224 217.856 217.856a31.968 31.968 0 0 1 0 45.248"  horiz-adv-x="1024" />

    
    <glyph glyph-name="other" unicode="&#59156;" d="M779.776 416h-387.2a32 32 0 0 1 0-64h387.2a32 32 0 0 1 0 64M779.776 224h-387.2a32 32 0 0 1 0-64h387.2a32 32 0 0 1 0 64M256 608a32 32 0 1 1 0-64 32 32 0 0 1 0 64M392.576 544h387.2a32 32 0 0 1 0 64h-387.2a32 32 0 0 1 0-64M256 416a32 32 0 1 1 0-64 32 32 0 0 1 0 64M256 224a32 32 0 1 1 0-64 32 32 0 0 1 0 64"  horiz-adv-x="1024" />

    
    <glyph glyph-name="qrcode_fill" unicode="&#59164;" d="M416.096 736H223.904A64 64 0 0 1 160 672.096v-192.192A64 64 0 0 1 223.904 416h192.192A64 64 0 0 1 480 479.904V672.096A64 64 0 0 1 416.096 736M416.096 352H223.904A64 64 0 0 1 160 288.096v-192.192A64 64 0 0 1 223.904 32h192.192A64 64 0 0 1 480 95.904v192.192A64 64 0 0 1 416.096 352M800.096 736h-192.192A64 64 0 0 1 544 672.096v-192.192A64 64 0 0 1 607.904 416h192.192A64 64 0 0 1 864 479.904V672.096A64 64 0 0 1 800.096 736M704 288a32 32 0 0 1-32-32v-192a32 32 0 1 1 64 0v192a32 32 0 0 1-32 32M576 288a32 32 0 0 1-32-32v-192a32 32 0 1 1 64 0v192a32 32 0 0 1-32 32M832 352a32 32 0 0 1-32-32v-256a32 32 0 1 1 64 0v256a32 32 0 0 1-32 32"  horiz-adv-x="1024" />

    
    <glyph glyph-name="return" unicode="&#59168;" d="M694.272 86.976l-295.808 286.848 295.36 274.752a32 32 0 0 1-43.616 46.848l-320-297.696a32 32 0 0 1-0.512-46.4l320-310.304a32.032 32.032 0 0 1 44.576 45.952"  horiz-adv-x="1024" />

    
    <glyph glyph-name="right" unicode="&#59169;" d="M822.464 630.656a28.256 28.256 0 0 1-43.072-1.312l-352.96-417.664-181.92 212.992a28.288 28.288 0 0 1-43.104 1.088 37.12 37.12 0 0 1-0.96-48.256l204.096-238.944c5.76-6.752 13.696-10.56 22.016-10.56h0.096a29.088 29.088 0 0 1 22.048 10.656L823.68 582.4c11.52 13.728 11.008 35.328-1.216 48.256"  horiz-adv-x="1024" />

    
    </font>
</defs>
</svg>
